<?xml version="1.0" encoding="UTF-8" standalone="no"?>
<svg
   xmlns:dc="http://purl.org/dc/elements/1.1/"
   xmlns:cc="http://creativecommons.org/ns#"
   xmlns:rdf="http://www.w3.org/1999/02/22-rdf-syntax-ns#"
   xmlns:svg="http://www.w3.org/2000/svg"
   xmlns="http://www.w3.org/2000/svg"
   viewBox="0 0 1440 1440"
   height="1440"
   width="1440"
   xml:space="preserve"
   id="svg2"
   version="1.1"><metadata
     id="metadata8"><rdf:RDF><cc:Work
         rdf:about=""><dc:format>image/svg+xml</dc:format><dc:type
           rdf:resource="http://purl.org/dc/dcmitype/StillImage" /></cc:Work></rdf:RDF></metadata><defs
     id="defs6"><clipPath
       id="clipPath18"
       clipPathUnits="userSpaceOnUse"><path
         id="path16"
         d="M 0,1080 H 1080 V 0 H 0 Z" /></clipPath></defs><g
     transform="matrix(1.3333333,0,0,-1.3333333,0,1440)"
     id="g10"><g
       id="g12"><g
         clip-path="url(#clipPath18)"
         id="g14"><g
           transform="translate(423.9988,345.9654)"
           id="g20"><path
             id="path22"
             style="fill:#373535;fill-opacity:1;fill-rule:nonzero;stroke:none"
             d="M 0,0 C 0.09,-0.007 0.177,-0.013 0.266,-0.019 0.23,0.029 0.187,0.071 0.157,0.122 0.102,0.084 0.055,0.037 0,0" /></g><g
           transform="translate(705.6247,319.3048)"
           id="g24"><path
             id="path26"
             style="fill:#373535;fill-opacity:1;fill-rule:nonzero;stroke:none"
             d="M 0,0 C 0.024,-0.005 0.048,-0.01 0.072,-0.016 0.05,0.029 0.032,0.075 0.011,0.12 Z" /></g><g
           transform="translate(432.1078,368.7423)"
           id="g28"><path
             id="path30"
             style="fill:#373535;fill-opacity:1;fill-rule:nonzero;stroke:none"
             d="M 0,0 C 0.01,0.02 0.022,0.039 0.032,0.059 0.016,0.064 0,0.066 -0.015,0.072 -0.012,0.047 -0.002,0.025 0,0" /></g><g
           transform="translate(517.7914,485.9824)"
           id="g32"><path
             id="path34"
             style="fill:#373535;fill-opacity:1;fill-rule:nonzero;stroke:none"
             d="M 0,0 C -0.022,-0.007 -0.044,-0.014 -0.066,-0.02 -0.039,-0.025 -0.012,-0.027 0.015,-0.033 0.01,-0.022 0.005,-0.011 0,0" /></g><g
           transform="translate(514.0983,484.8356)"
           id="g36"><path
             id="path38"
             style="fill:#373535;fill-opacity:1;fill-rule:nonzero;stroke:none"
             d="M 0,0 C -0.02,-0.033 -0.039,-0.067 -0.059,-0.1 0.022,-0.045 0.103,0.007 0.186,0.058 0.124,0.038 0.062,0.019 0,0" /></g><g
           transform="translate(878.6901,406.1727)"
           id="g40"><path
             id="path42"
             style="fill:#373535;fill-opacity:1;fill-rule:nonzero;stroke:none"
             d="M 0,0 C -3.019,0 -3.014,4.684 0,4.684 3.019,4.684 3.014,0 0,0 m -22.481,-49.333 c -3.019,0 -3.014,4.683 0,4.683 3.019,0 3.014,-4.683 0,-4.683 m -15.313,-30.608 c -7.253,-0.622 -7.639,-1.001 -8.271,-8.118 -0.019,-0.222 -0.204,-0.391 -0.426,-0.391 -0.221,0 -0.407,0.169 -0.426,0.391 -0.632,7.117 -1.018,7.496 -8.27,8.118 -0.221,0.019 -0.391,0.204 -0.391,0.426 0,0.222 0.17,0.407 0.391,0.426 7.252,0.622 7.638,1.001 8.27,8.118 0.019,0.221 0.205,0.391 0.426,0.391 0.222,0 0.407,-0.17 0.426,-0.391 0.632,-7.117 1.018,-7.496 8.271,-8.118 0.221,-0.019 0.391,-0.204 0.391,-0.426 0,-0.222 -0.17,-0.407 -0.391,-0.426 m -37.143,-29.966 c -3.018,0 -3.013,4.683 0,4.683 3.019,0 3.014,-4.683 0,-4.683 m -11.24,-34.971 c -3.019,0 -3.014,4.684 0,4.684 3.018,0 3.013,-4.684 0,-4.684 m -28.726,21.857 c -3.019,0 -3.014,4.683 0,4.683 3.019,0 3.014,-4.683 0,-4.683 m -38.933,59.75 c -1.586,-1.736 -3.195,-2.512 -5.536,-2.588 -1.185,-0.039 -4.327,1.281 -4.969,0.905 -2.631,-1.54 -0.229,-4.787 0.82,-6.198 0.104,-0.14 0.17,-0.279 0.22,-0.417 2.343,-2.745 5.405,-5.145 7.57,-7.134 0.778,-0.716 0.487,-1.967 -0.316,-2.494 -2.518,-1.652 -5.02,-2.534 -8.038,-2.335 -1.14,0.075 -2.215,0.566 -3.308,0.693 -0.524,0.231 -1.048,0.461 -1.572,0.692 0.516,-2.576 1.884,-4.436 4.104,-5.582 0.698,-0.447 1.018,-1.428 0.56,-2.172 -3.206,-5.222 -9.526,-3.704 -14.83,-3.894 0.112,1.156 0.112,2.318 -0.098,3.486 -0.186,1.041 -0.487,1.997 -0.981,2.932 -0.067,0.128 -0.415,0.705 -0.751,1.222 1.666,3.772 2.159,7.449 -0.655,11.271 0.499,0.583 0.803,1.474 0.96,2.49 0.251,0.495 0.456,1.014 0.578,1.576 0.36,1.659 0.13,3.28 0.014,4.889 0.259,0.142 0.501,0.312 0.699,0.548 2.649,3.158 3.209,7.368 1.191,11.026 -0.006,0.01 -0.014,0.018 -0.02,0.028 -0.054,0.428 -0.232,0.844 -0.576,1.157 l -40.462,36.828 c 0.288,0.013 0.572,0.047 0.851,0.102 1.297,1.472 4.118,2.17 5.584,3.636 -3.107,-0.623 -7.04,-0.979 -7.465,2.468 -0.203,1.645 0.715,2.433 1.922,3.268 0.894,0.618 2.216,0.871 3.114,1.451 0.391,0.251 0.745,0.528 1.082,0.818 0.094,0.327 0.293,0.636 0.64,0.873 0.391,0.267 0.736,0.624 0.864,1.097 0.108,0.206 0.111,0.422 0.05,0.644 -0.805,-0.05 -1.545,0.809 -1.527,1.617 -0.081,-0.043 -0.149,-0.078 -0.185,-0.09 -0.733,-0.24 -1.498,-0.259 -2.24,-0.041 -1.659,0.488 -2.662,1.88 -3.532,3.3 -0.555,0.907 -0.086,1.769 0.639,2.146 0.009,0.03 0.01,0.058 0.019,0.088 0.316,0.982 0.795,1.255 1.702,1.66 0.273,0.122 0.507,0.142 0.788,0.217 1.42,0.377 4.608,1.729 5.833,1.57 -1.022,0.133 -2.143,1.301 -1.348,2.389 1.779,2.436 4.429,2.338 6.954,3.725 4.301,2.362 6.903,6.865 9.36,10.978 0.281,0.471 0.684,0.693 1.101,0.739 1.119,1.278 2.442,1.956 4.529,0.279 1.443,-1.158 1.617,-2.815 2.192,-4.454 1.135,-3.237 3.249,-6.399 5.314,-9.105 1.554,-2.035 3.212,-3.783 5.354,-5.213 1.129,-0.754 2.562,-1.174 3.582,-2.058 0.913,-0.793 1.518,-1.533 1.31,-2.805 -0.184,-1.116 -0.876,-1.745 -1.805,-2.062 1.149,-0.877 2.314,-1.728 3.165,-2.975 1.042,-1.525 1.852,-2.141 3.462,-2.947 0.826,-0.413 1.628,-0.832 2.183,-1.609 2.289,-3.209 -1.689,-6.392 -4.871,-6.125 0.611,-1.12 1.408,-2.18 2.056,-3.032 1.306,-1.715 2.594,-1.904 4.341,-2.764 1.393,-0.684 2.438,-1.76 2.277,-3.435 -0.41,-4.255 -5.059,-4.426 -8.545,-3.749 0.239,-0.604 0.612,-1.162 1.137,-1.669 0.322,-0.358 0.439,-0.757 0.418,-1.139 0.647,-0.502 1.356,-0.959 2.122,-1.378 1.645,-0.901 3.595,-1.225 4.957,-2.532 1.155,-1.108 1.499,-2.597 2.821,-3.676 0.8,-0.653 1.583,-0.682 1.886,-1.827 0.584,-2.201 -2.059,-4.181 -3.791,-4.877 -1.189,-0.477 -2.479,-0.663 -3.753,-0.488 -2.168,0.3 -3.181,2.25 -1.779,-1.323 0.045,-0.117 0.076,-0.228 0.094,-0.336 1.49,-2.159 3.604,-3.42 6.193,-5.33 1.022,-0.754 2.027,-1.342 2.31,-2.754 0.232,-1.156 -0.587,-1.945 -0.784,-2.828 -0.417,-1.869 -1.271,0.098 -0.051,-1.749 0.808,-1.224 2.652,-2.409 4.028,-2.872 1.274,-0.429 1.686,-1.825 0.838,-2.752 m -2.907,-139.058 c -3.018,0 -3.013,4.683 0,4.683 3.019,0 3.014,-4.683 0,-4.683 m -13.738,55.578 c -3.019,0 -3.014,4.684 0,4.684 3.019,0 3.014,-4.684 0,-4.684 m -15.062,86.736 c -0.387,-0.536 -0.501,-1.181 -0.868,-1.721 -0.834,-1.225 -2.41,-1.383 -3.738,-1.53 -0.201,-0.022 -0.351,-0.114 -0.471,-0.231 l -109.168,0.867 c -1.664,0.336 -3.256,0.959 -4.731,1.849 l -52.635,51.871 c -0.238,0.234 -0.555,0.354 -0.893,0.36 -0.334,-0.005 -0.653,-0.141 -0.883,-0.382 l -42.513,-44.118 c -0.682,-0.36 -1.364,-0.719 -2.045,-1.078 -0.084,-0.044 -0.139,-0.102 -0.194,-0.159 -3.966,-0.523 -5.592,0.07 -6.207,0.512 -0.135,0.097 -0.241,0.198 -0.316,0.301 -0.314,0.43 -0.866,0.612 -1.372,0.458 -0.442,-0.134 -0.886,-0.21 -1.327,-0.26 -0.309,0.03 -0.604,0.002 -0.889,-0.061 -0.258,-10e-4 -0.508,0.02 -0.76,0.039 -0.463,0.197 -0.914,0.295 -1.426,0.327 -0.202,0.013 -0.411,0.015 -0.617,0.028 -0.324,0.087 -0.629,0.18 -0.915,0.28 -0.487,0.361 -0.663,0.985 -0.683,1.604 l 54.402,60.268 86.115,-0.618 h 0.009 c 0.678,0 1.234,0.543 1.249,1.222 l 0.178,8.228 5.613,-1.02 -0.173,-3.995 c -0.014,-0.321 0.096,-0.634 0.307,-0.876 l 1.138,-1.301 V -2.863 c 0,-0.69 0.558,-1.249 1.249,-1.249 h 1.256 c 0.684,0 1.24,0.551 1.249,1.235 l 0.193,15.945 c 0.005,0.361 -0.148,0.705 -0.417,0.946 -0.27,0.239 -0.633,0.351 -0.987,0.307 l -0.253,-0.031 v 4.913 h 26.644 v -5.829 h -1.249 c -0.69,0 -1.249,-0.559 -1.249,-1.249 V -3.203 c 0,-0.361 0.156,-0.704 0.428,-0.941 l 57.752,-50.342 c 0.464,-0.662 0.779,-1.419 0.824,-2.253 0.08,-1.505 -0.869,-2.225 -1.627,-3.276 m -2.44,-26.317 -43.939,-0.087 c -1.608,0.614 -2.885,1.977 -3.207,3.75 -0.262,1.439 0.083,2.788 0.808,3.849 l 45.08,0.089 c 1.361,-0.563 2.177,-1.956 2.405,-3.478 0.005,-1.159 -0.281,-2.545 -1.147,-4.123 m 0.649,-7.466 c -0.083,-1.425 -0.418,-2.953 -1.931,-3.487 -0.119,-0.042 -0.215,-0.103 -0.293,-0.176 l -43.853,-0.085 c -1.342,1.136 -2.094,2.969 -1.703,4.955 0.187,0.946 0.651,1.767 1.285,2.422 l 45.225,0.089 c 0.043,-0.028 0.076,-0.064 0.127,-0.085 0.147,-0.061 0.27,-0.144 0.383,-0.237 0.246,-0.347 0.457,-0.707 0.632,-1.076 0.205,-0.763 0.166,-1.667 0.128,-2.32 m -61.622,3.251 v -7.029 l -7.702,-0.015 v 7.044 z m -7.702,4.079 v 6.953 h 7.702 v -6.937 z m 17.901,-4.079 v -7.009 l -7.701,-0.015 v 7.024 z m -7.701,4.1 v 6.932 h 7.701 v -6.917 z m 55.913,-20.62 c -0.109,-0.561 -0.367,-1.09 -0.75,-1.553 l -120.368,-0.225 c -0.834,-0.002 -1.617,-0.328 -2.206,-0.918 -0.589,-0.592 -0.913,-1.377 -0.91,-2.21 0.003,-1.719 1.405,-3.117 3.128,-3.117 l 104.892,0.196 c 1.3,-0.854 1.956,-2.435 1.643,-4.027 -0.193,-0.975 -0.795,-1.83 -1.67,-2.385 l -102.38,-0.245 c -1.722,-0.004 -3.119,-1.409 -3.115,-3.13 0.003,-1.717 1.405,-3.115 3.129,-3.115 l 97.814,0.234 c 0.594,-0.862 0.813,-1.929 0.602,-3.002 -0.345,-1.75 -1.966,-3.021 -3.856,-3.021 h -103.056 c -1.262,0 -2.467,0.669 -3.144,1.746 -0.16,0.255 -0.22,0.75 -0.277,1.228 -0.115,0.962 -0.259,2.16 -1.298,2.989 -0.13,0.105 -0.274,0.198 -0.419,0.287 -0.022,0.013 -0.044,0.027 -0.066,0.04 v 0.101 c -0.023,1.642 -0.008,3.286 0.01,4.93 0.008,0.829 0.015,1.657 0.019,2.485 l 0.166,45.774 c 0.354,0.328 0.585,0.776 0.64,1.282 0.02,0.177 0.077,0.712 0.222,0.839 0.247,0.056 0.495,0.071 0.741,0.089 0.562,0.042 1.262,0.094 1.973,0.46 0.905,0.466 1.562,1.361 1.749,2.348 0.766,1.292 0.489,3.053 -0.765,4.697 -0.716,0.935 -1.462,1.85 -2.221,2.759 -1.95,3.02 -4.732,5.766 -7.189,8.191 -1.123,1.108 -2.183,2.154 -3.122,3.176 -5.986,6.517 -12.4,13.334 -19.604,20.836 -0.166,0.367 -0.253,0.707 -0.269,1.038 -0.037,0.747 0.182,1.216 1.424,1.549 0.136,0.025 0.27,0.053 0.408,0.064 1.397,0.097 2.788,-0.478 4.102,-1.635 l 35.688,-37.786 3.745,-3.403 c 0.229,-0.208 0.528,-0.324 0.838,-0.324 l 116.63,-0.207 c 0.578,-0.638 0.751,-1.598 0.516,-2.863 -0.31,-0.372 -0.722,-0.643 -1.234,-0.807 -0.03,-0.01 -0.059,-0.021 -0.087,-0.031 l -123.541,-0.244 c -1.722,-0.003 -3.12,-1.407 -3.116,-3.128 0.003,-1.719 1.405,-3.117 3.128,-3.117 l 50.42,0.1 c 0.322,-0.719 0.42,-1.525 0.275,-2.325 -0.226,-1.237 -1.116,-2.289 -2.346,-2.785 l -48.011,-0.095 c -0.834,-0.003 -1.617,-0.328 -2.206,-0.919 -0.589,-0.591 -0.913,-1.377 -0.91,-2.21 0.003,-1.718 1.405,-3.116 3.128,-3.116 l 48.708,0.097 c 0.58,-0.858 0.793,-1.917 0.584,-2.976 -0.143,-0.731 -0.504,-1.381 -1.05,-1.904 l -48.254,-0.093 c -0.834,-0.003 -1.617,-0.328 -2.206,-0.918 -0.589,-0.592 -0.913,-1.377 -0.91,-2.211 0.003,-1.718 1.405,-3.116 3.128,-3.116 l 117.968,0.228 c 0.986,-0.142 1.889,-0.692 2.486,-1.517 0.639,-0.882 0.871,-1.978 0.652,-3.085 m -7.301,-94.281 c -10.586,-0.908 -11.149,-1.462 -12.071,-11.85 -0.028,-0.323 -0.299,-0.57 -0.622,-0.57 -0.323,0 -0.594,0.247 -0.622,0.57 -0.922,10.388 -1.486,10.942 -12.071,11.85 -0.324,0.027 -0.571,0.297 -0.571,0.622 0,0.324 0.247,0.594 0.571,0.622 10.585,0.906 11.149,1.46 12.071,11.849 0.028,0.322 0.299,0.569 0.622,0.569 0.323,0 0.594,-0.247 0.622,-0.569 0.922,-10.389 1.485,-10.943 12.071,-11.849 0.323,-0.028 0.571,-0.298 0.571,-0.622 0,-0.325 -0.248,-0.595 -0.571,-0.622 m -68.804,-22.213 c -3.018,0 -3.013,4.683 0,4.683 3.019,0 3.014,-4.683 0,-4.683 m -38.717,41.84 c -3.019,0 -3.014,4.683 0,4.683 3.019,0 3.014,-4.683 0,-4.683 m -10.616,-37.469 c -3.019,0 -3.014,4.684 0,4.684 3.019,0 3.014,-4.684 0,-4.684 m -23.547,56.344 c -7.252,-0.622 -7.638,-1.001 -8.27,-8.119 -0.019,-0.221 -0.205,-0.39 -0.426,-0.39 -0.221,0 -0.407,0.169 -0.426,0.39 -0.632,7.118 -1.018,7.497 -8.27,8.119 -0.222,0.018 -0.391,0.203 -0.391,0.426 0,0.222 0.169,0.407 0.391,0.426 7.252,0.621 7.638,1.001 8.27,8.118 0.019,0.221 0.205,0.39 0.426,0.39 0.221,0 0.407,-0.169 0.426,-0.39 0.632,-7.117 1.018,-7.497 8.27,-8.118 0.222,-0.019 0.391,-0.204 0.391,-0.426 0,-0.223 -0.169,-0.408 -0.391,-0.426 m -24.537,-81.323 c -3.019,0 -3.014,4.684 0,4.684 3.018,0 3.013,-4.684 0,-4.684 m -3.351,167.222 -0.167,-36.089 c -0.944,-1.468 -1.679,-2.156 -1.872,-2.234 -0.079,-0.009 -0.159,-0.024 -0.236,-0.048 -0.18,-0.053 -1.136,-0.327 -2.167,-0.327 -0.617,0 -1.461,0.103 -1.978,0.587 -0.422,0.398 -0.637,1.027 -0.637,1.872 v 40.678 l 0.595,1.162 h 24.402 c -0.023,-1.379 -0.411,-3.679 -2.062,-3.954 l -14.663,-0.404 c -0.675,-0.019 -1.211,-0.569 -1.215,-1.243 m -39.157,-15.047 c -0.108,-0.161 -2.684,-3.948 -6.309,-4.552 -0.325,-0.055 -0.647,-0.081 -0.967,-0.081 -1.347,0 -2.648,0.479 -3.88,1.431 l -27.528,20.021 c -0.299,0.05 -0.656,0.219 -0.934,0.585 -0.798,1.052 -0.626,3.213 0.524,6.608 -0.042,1.078 -0.338,3.398 -1.207,4.963 -2.18,-0.528 -4.482,-0.606 -6.891,-0.365 -3.1,0.309 -8.479,0.309 -9.378,4.186 -0.248,1.069 0.477,1.952 1.505,2.029 2.984,0.224 2.822,2.086 4.23,3.858 0.757,0.953 1.838,1.194 2.829,1.764 0.321,0.184 0.612,0.402 0.903,0.62 0.117,0.244 0.302,0.47 0.582,0.648 1.369,0.867 2.555,1.999 1.713,3.638 -0.168,0.327 -0.535,0.547 -0.695,0.881 -0.425,0.885 -0.667,1.663 -0.46,2.67 0.221,1.07 1.015,1.879 1.57,2.764 0.169,0.208 0.314,0.43 0.442,0.662 -3.287,-1.416 -7.697,1.418 -5.298,4.752 0.034,0.104 0.059,0.205 0.103,0.313 0.223,0.547 0.67,0.848 0.933,1.348 0.847,1.609 0.633,2.899 1.212,4.414 0.721,1.882 2.375,2.711 3.968,3.68 1.177,0.716 2.258,1.492 3.201,2.373 0.064,0.107 0.141,0.212 0.239,0.313 -0.192,1.019 -0.384,2.038 -0.577,3.057 -0.963,-0.508 -1.92,-0.037 -2.293,0.958 -0.071,0.189 -0.166,0.339 -0.273,0.472 -0.536,0.125 -1.074,0.237 -1.618,0.308 -0.519,0.068 -0.962,0.24 -1.362,0.454 -1.355,0.098 -2.583,0.464 -2.528,2.946 0.035,1.57 1.139,2.528 2.277,3.358 2.704,1.972 5.206,2.991 7.503,5.015 -0.316,0.093 -0.652,0.253 -1.043,0.559 -0.556,0.434 -0.929,1.06 -0.718,1.811 0.82,2.92 3.201,3.909 5.44,5.632 4.669,3.592 7.246,8.178 9.85,13.401 0.099,0.198 0.222,0.349 0.355,0.471 0.535,1.074 1.113,2.156 1.917,2.956 1.932,1.919 4.756,1.503 6.529,-0.423 2.897,-3.148 1.163,-8.017 3.792,-11.334 1.017,-1.283 2.255,-2.162 2.903,-3.741 0.364,-0.889 0.452,-1.826 0.557,-2.753 0.194,-0.079 0.373,-0.198 0.524,-0.365 0.34,-0.168 0.607,-0.496 0.694,-1.022 0.478,-2.916 3.085,-3.159 5.31,-2.421 l 11.659,12.99 c 1.42,5.986 -10.467,-0.815 -10.626,6.216 -0.051,2.235 1.701,2.51 3.042,3.515 3.846,2.883 4.032,2.095 3.189,6.017 -0.118,0.547 -0.02,1.166 0.401,1.56 1.886,1.766 4.021,3.073 5.627,4.943 -2.113,-0.504 -4.185,-0.221 -4.779,2.51 -0.356,1.636 0.589,2.806 1.573,3.903 1.847,2.059 3.945,2.87 5.759,4.305 0.086,0.148 0.199,0.293 0.362,0.426 1.632,1.331 0.249,0.306 -1.012,0.374 -1.033,0.056 -2.01,0.443 -2.823,1.105 -1.313,1.069 -2.497,3.426 -1.329,5.036 0.759,1.047 2.404,1.127 3.501,1.429 0.749,0.206 1.705,0.32 2.349,0.801 0.906,0.678 0.992,1.71 1.713,2.454 0.606,0.626 1.3,0.944 2.039,1.218 -1.877,1.119 -3.25,2.97 -2.626,5.368 0.472,1.813 1.514,2.055 3.082,2.546 3.417,1.071 6.018,1.85 8.619,4.006 -1.489,0.974 -2.597,2.202 -1.008,4.059 1.53,1.787 4.966,2.062 6.92,3.037 2.377,1.186 4.21,2.907 5.664,5.042 0.028,0.162 0.073,0.327 0.158,0.495 1.476,2.929 3.822,5.736 7.131,3.772 4.183,-2.481 5.253,-10.8 8,-14.751 2.57,-3.698 6.059,-3.888 9.255,-6.27 1.049,-0.782 1.743,-1.65 1.763,-3.028 0.022,-1.53 -0.782,-2.367 -1.869,-2.799 2.09,-1.48 4.818,-1.494 6.121,-3.723 0.51,-0.871 0.495,-1.427 0.212,-2.438 -0.61,-2.186 -2.514,-3.246 -4.557,-3.523 -0.033,-0.04 -0.058,-0.081 -0.096,-0.119 -0.106,-0.109 3.409,-3.644 3.637,-3.906 0.856,-0.978 1.733,-2.249 2.887,-2.846 0.852,-0.44 2.038,-0.307 2.946,-0.598 1.588,-0.509 2.569,-1.498 2.407,-3.328 -0.168,-1.885 -1.796,-3.259 -3.405,-3.882 -0.23,-0.089 -1.21,-0.207 -2.144,-0.291 -0.427,-1.002 -0.471,-1.828 0.68,-2.576 1.245,-0.81 2.629,-1.45 3.995,-2.028 0.553,0.091 1.106,0.293 1.661,0.537 0.093,0.045 0.188,0.086 0.285,0.126 0.957,0.438 1.924,0.953 2.919,1.165 1.769,0.376 3.003,1.157 3.974,2.225 -1.671,-0.319 -3.323,-0.006 -4.318,1.804 -1.659,3.013 1.28,4.636 3.139,6.666 -3.672,-0.017 -8.724,0.39 -8.326,4.597 0.215,2.269 2.082,2.353 3.841,2.897 3.141,0.972 5.478,2.99 7.066,5.747 -0.448,0.105 -1.399,-0.06 -2.097,0.145 -0.996,0.293 -1.257,1.226 -2.104,1.594 -1.935,0.839 -4.284,-0.84 -5.331,2.054 -0.907,2.508 1.024,4.263 2.971,5.291 2.663,1.407 4.866,2.772 6.653,4.686 -1.613,0.901 -2.98,2.275 -2.574,4.402 0.23,1.203 0.927,1.75 1.829,2.385 1.307,0.922 2.602,1.29 3.672,2.174 -2.275,0.732 -4.701,2.159 -3.302,4.739 0.77,1.421 2.607,1.755 3.926,2.308 1.483,0.623 2.813,1.46 4.07,2.413 -4.521,4.06 4.363,7.91 8.482,9.965 -0.241,0.199 -0.484,0.443 -0.752,0.811 -0.331,0.455 -0.246,1.156 0,1.619 1.387,2.615 5.31,3.43 7.492,5.426 1.934,1.769 3.306,5.354 5.814,6.421 5.211,2.217 7.742,-4.984 9.893,-9.534 0.215,-0.132 0.407,-0.337 0.546,-0.645 1.686,-3.726 3.973,-6.458 7.088,-9.034 1.375,-1.137 3.069,-2.056 3.413,-4.026 0.217,-1.247 -0.065,-2.353 -0.916,-3.264 -1.254,-1.344 -3.831,-0.76 -1.096,-2.792 2.289,-1.701 8.483,-1.753 7.932,-6.109 -0.233,-1.841 -1.623,-2.794 -3.278,-3.259 0.879,-1.387 2.355,-2.451 2.74,-4.118 0.318,-1.378 -0.321,-2.043 0.326,-3.195 1.228,-2.188 5.164,-1.649 6.618,-4.204 1.171,-2.055 -0.016,-4.147 -1.936,-5.238 -1.013,-0.575 -2.231,-0.788 -3.373,-0.803 -0.524,-0.007 -0.986,0.047 -1.504,0.128 -2.726,0.423 -0.792,-0.346 0.668,-1.406 0.499,-0.363 0.697,-0.875 0.686,-1.378 1.037,-0.477 2.214,-0.828 3.482,-1.304 1.045,-0.394 2.047,-0.85 2.666,-1.877 0.611,-1.013 0.672,-2.37 0.23,-3.459 -0.265,-0.654 -1.578,-1.479 -1.622,-1.841 -0.244,-2 6.063,-3.219 4.88,-6.872 -0.33,-1.021 -1.275,-1.745 -2.207,-2.122 -0.975,-0.394 -4.975,0.471 -4.239,-1.574 l 2.933,-0.96 c 1.412,-0.847 2.107,-1.791 2.066,-2.809 -0.064,-1.585 -1.903,-2.533 -2.112,-2.635 l -0.269,-0.063 h -17.694 c -2.62,-0.304 -4.18,-0.953 -4.787,-1.253 v -6.728 c 0,-1.925 -0.301,-3.031 -0.949,-3.48 -0.281,-0.194 -0.57,-0.221 -0.794,-0.179 h -83.745 l -56.849,-63.384 c -0.538,-0.781 -0.925,-1.442 -1.205,-2.001 -0.346,-0.503 -0.578,-1.054 -0.59,-1.621 -0.11,-0.567 -0.043,-0.907 0.034,-1.073 0.166,-0.355 0.524,-0.447 0.654,-0.471 0.372,-0.325 0.852,-0.558 1.364,-0.738 1.249,-0.711 3.56,-1.797 6.154,-1.903 0.147,-0.743 0.612,-1.439 1.493,-1.918 2.379,-1.296 4.999,-2.023 7.695,-2.034 0.57,-1.723 0.778,-3.919 0.593,-6.605 l 0.069,-24.135 z m -26.184,-93.474 c -3.019,0 -3.014,4.683 0,4.683 3.018,0 3.013,-4.683 0,-4.683 m -4.996,59.325 c -3.019,0 -3.014,4.683 0,4.683 3.018,0 3.014,-4.683 0,-4.683 m 43.088,207.637 c 3.019,0 3.014,-4.684 0,-4.684 -3.018,0 -3.013,4.684 0,4.684 m 0.248,30.877 c 10.586,0.907 11.149,1.461 12.071,11.849 0.028,0.323 0.299,0.57 0.622,0.57 0.324,0 0.594,-0.247 0.622,-0.57 0.922,-10.388 1.486,-10.942 12.071,-11.849 0.324,-0.027 0.571,-0.298 0.571,-0.622 0,-0.324 -0.247,-0.595 -0.571,-0.622 -10.585,-0.907 -11.149,-1.461 -12.071,-11.85 -0.028,-0.322 -0.298,-0.569 -0.622,-0.569 -0.323,0 -0.594,0.247 -0.622,0.569 -0.922,10.389 -1.485,10.943 -12.071,11.85 -0.323,0.027 -0.571,0.298 -0.571,0.622 0,0.324 0.248,0.595 0.571,0.622 m 7.246,66.54 c 3.019,0 3.014,-4.683 0,-4.683 -3.018,0 -3.014,4.683 0,4.683 m 41.215,56.203 c 3.019,0 3.014,-4.684 0,-4.684 -3.018,0 -3.013,4.684 0,4.684 m 4.996,-106.785 c 3.019,0 3.014,-4.683 0,-4.683 -3.019,0 -3.014,4.683 0,4.683 m 21.857,89.3 c 3.018,0 3.013,-4.684 0,-4.684 -3.019,0 -3.014,4.684 0,4.684 m 16.236,61.198 c 3.018,0 3.014,-4.684 0,-4.684 -3.019,0 -3.014,4.684 0,4.684 m 28.101,-70.565 c 3.019,0 3.014,-4.684 0,-4.684 -3.018,0 -3.013,4.684 0,4.684 m 2.498,-88.988 c -3.019,0 -3.014,4.684 0,4.684 3.019,0 3.014,-4.684 0,-4.684 m 0.624,37.469 c -3.018,0 -3.013,4.683 0,4.683 3.019,0 3.014,-4.683 0,-4.683 m 9.456,-60.797 c 0.743,5.847 3.218,10.721 6.659,15.445 4.186,5.745 10.532,10.969 9.43,18.852 -0.222,1.591 2.09,2.341 2.484,0.685 1.185,-4.985 0.594,-9.826 -1.325,-14.574 -2.568,-6.351 -7.564,-11.577 -9.322,-18.258 -2.153,-8.18 1.259,-14.427 4.087,-21.822 1.977,-5.171 2.435,-9.827 -1.089,-14.3 -0.863,-1.095 -2.969,-0.496 -3.204,0.846 -1.972,11.269 -9.209,21.402 -7.72,33.126 m 16.148,39.658 c -0.081,0 -0.08,0.125 0,0.125 0.08,0 0.08,-0.125 0,-0.125 m -13.56,138.618 c 7.252,0.621 7.638,1 8.27,8.118 0.019,0.221 0.205,0.39 0.426,0.39 0.222,0 0.407,-0.169 0.426,-0.39 0.632,-7.118 1.018,-7.497 8.271,-8.118 0.221,-0.019 0.391,-0.204 0.391,-0.427 0,-0.222 -0.17,-0.407 -0.391,-0.426 -7.253,-0.621 -7.639,-1.001 -8.271,-8.118 -0.019,-0.221 -0.204,-0.39 -0.426,-0.39 -0.221,0 -0.407,0.169 -0.426,0.39 -0.632,7.117 -1.018,7.497 -8.27,8.118 -0.221,0.019 -0.391,0.204 -0.391,0.426 0,0.223 0.17,0.408 0.391,0.427 m 16.682,-33.8 c -3.018,0 -3.013,4.683 0,4.683 3.019,0 3.014,-4.683 0,-4.683 m 9.038,-164.189 c 2.039,-4.731 2.87,-9.996 1.762,-15.083 -1.278,-5.863 -5.391,-9.973 -7.953,-15.203 -2.641,-5.39 -1.721,-11.384 -2.745,-17.118 -0.22,-1.233 -1.866,-1.469 -2.666,-0.704 -9.501,9.079 -0.455,21.32 4.267,29.984 4.701,8.628 0.485,15.564 -2.823,23.62 -2.569,6.259 -3.036,11.236 -1.143,17.63 0.492,1.663 3.023,0.966 2.597,-0.716 -2.04,-8.04 5.748,-15.55 8.704,-22.41 m 8.447,265.666 c 3.019,0 3.014,-4.684 0,-4.684 -3.018,0 -3.013,4.684 0,4.684 m 4.996,-323.789 c -3.018,0 -3.013,4.683 0,4.683 3.019,0 3.014,-4.683 0,-4.683 m 6.245,124.582 c 3.019,0 3.014,-4.684 0,-4.684 -3.019,0 -3.014,4.684 0,4.684 m 1.873,-100.54 c 3.019,0 3.014,-4.684 0,-4.684 -3.018,0 -3.013,4.684 0,4.684 m 1.379,148.546 c 0.028,0.323 0.299,0.57 0.622,0.57 0.323,0 0.594,-0.247 0.622,-0.57 0.922,-10.388 1.485,-10.942 12.071,-11.849 0.323,-0.027 0.571,-0.297 0.571,-0.622 0,-0.324 -0.248,-0.594 -0.571,-0.622 -10.586,-0.907 -11.149,-1.461 -12.071,-11.85 -0.028,-0.322 -0.299,-0.569 -0.622,-0.569 -0.323,0 -0.594,0.247 -0.622,0.569 -0.922,10.389 -1.486,10.943 -12.071,11.85 -0.324,0.028 -0.571,0.298 -0.571,0.622 0,0.325 0.247,0.595 0.571,0.622 10.585,0.907 11.149,1.461 12.071,11.849 m 4.242,106.239 c 3.018,0 3.013,-4.684 0,-4.684 -3.019,0 -3.014,4.684 0,4.684 m 10.07,-218.052 c 0.632,-7.118 1.018,-7.497 8.27,-8.118 0.221,-0.019 0.391,-0.204 0.391,-0.427 0,-0.222 -0.17,-0.407 -0.391,-0.426 -7.252,-0.621 -7.638,-1.001 -8.27,-8.118 -0.019,-0.221 -0.205,-0.39 -0.426,-0.39 -0.222,0 -0.407,0.169 -0.426,0.39 -0.632,7.117 -1.018,7.497 -8.271,8.118 -0.221,0.019 -0.391,0.204 -0.391,0.426 0,0.223 0.17,0.408 0.391,0.427 7.253,0.621 7.639,1 8.271,8.118 0.019,0.221 0.204,0.39 0.426,0.39 0.221,0 0.407,-0.169 0.426,-0.39 m 2.419,309.849 c 3.019,0 3.014,-4.683 0,-4.683 -3.019,0 -3.014,4.683 0,4.683 m 3.747,-34.658 c -3.019,0 -3.014,4.683 0,4.683 3.019,0 3.014,-4.683 0,-4.683 m 2.498,-157.992 c -3.019,0 -3.014,4.684 0,4.684 3.018,0 3.013,-4.684 0,-4.684 M -172.354,44.65 c 3.018,0 3.013,-4.684 0,-4.684 -3.019,0 -3.014,4.684 0,4.684 M -502.7,-83.679 c -3.019,0 -3.014,4.683 0,4.683 3.018,0 3.013,-4.683 0,-4.683 m -1.874,-105.536 c -3.018,0 -3.013,4.683 0,4.683 3.019,0 3.014,-4.683 0,-4.683 m -15.36,76.105 c -10.586,-0.907 -11.149,-1.461 -12.071,-11.85 -0.028,-0.322 -0.299,-0.569 -0.622,-0.569 -0.324,0 -0.594,0.247 -0.622,0.569 -0.922,10.389 -1.486,10.943 -12.071,11.85 -0.324,0.027 -0.571,0.298 -0.571,0.622 0,0.324 0.247,0.595 0.571,0.622 10.585,0.907 11.149,1.461 12.071,11.849 0.028,0.323 0.298,0.57 0.622,0.57 0.323,0 0.594,-0.247 0.622,-0.57 0.922,-10.388 1.485,-10.942 12.071,-11.849 0.323,-0.027 0.571,-0.298 0.571,-0.622 0,-0.324 -0.248,-0.595 -0.571,-0.622 m -27.138,425.773 c -7.253,-0.621 -7.639,-1.001 -8.271,-8.118 -0.019,-0.221 -0.204,-0.39 -0.426,-0.39 -0.221,0 -0.407,0.169 -0.426,0.39 -0.632,7.117 -1.018,7.497 -8.27,8.118 -0.222,0.019 -0.391,0.204 -0.391,0.427 0,0.222 0.169,0.407 0.391,0.426 7.252,0.621 7.638,1 8.27,8.118 0.019,0.221 0.205,0.39 0.426,0.39 0.222,0 0.407,-0.169 0.426,-0.39 0.632,-7.118 1.018,-7.497 8.271,-8.118 0.221,-0.019 0.391,-0.204 0.391,-0.426 0,-0.223 -0.17,-0.408 -0.391,-0.427 m -4.962,-47.887 c -3.018,0 -3.013,4.684 0,4.684 3.019,0 3.014,-4.684 0,-4.684 m -1.873,-265.4 c -3.019,0 -3.014,4.683 0,4.683 3.019,0 3.014,-4.683 0,-4.683 m -9.367,-87.427 c -3.019,0 -3.014,4.684 0,4.684 3.019,0 3.014,-4.684 0,-4.684 M -567.645,58.7 c -3.019,0 -3.014,4.684 0,4.684 3.018,0 3.013,-4.684 0,-4.684 m -12.49,-83.679 c -3.018,0 -3.014,4.684 0,4.684 3.019,0 3.014,-4.684 0,-4.684 m -6.869,101.789 c -3.019,0 -3.014,4.684 0,4.684 3.019,0 3.014,-4.684 0,-4.684 m -3.214,44.068 c -0.02,-0.222 -0.205,-0.391 -0.427,-0.391 -0.221,0 -0.407,0.169 -0.426,0.391 -0.632,7.117 -1.018,7.496 -8.27,8.118 -0.221,0.019 -0.391,0.204 -0.391,0.426 0,0.222 0.17,0.407 0.391,0.426 7.252,0.622 7.638,1.001 8.27,8.118 0.019,0.221 0.205,0.391 0.426,0.391 0.222,0 0.407,-0.17 0.427,-0.391 0.631,-7.117 1.017,-7.496 8.27,-8.118 0.221,-0.019 0.391,-0.204 0.391,-0.426 0,-0.222 -0.17,-0.407 -0.391,-0.426 -7.253,-0.622 -7.639,-1.001 -8.27,-8.118 m -13.022,179.493 c -3.019,0 -3.014,4.684 0,4.684 3.018,0 3.013,-4.684 0,-4.684 M -615.152,-31.77 c -7.252,-0.621 -7.638,-1.001 -8.27,-8.118 -0.019,-0.221 -0.205,-0.39 -0.426,-0.39 -0.222,0 -0.407,0.169 -0.426,0.39 -0.632,7.117 -1.018,7.497 -8.27,8.118 -0.222,0.019 -0.391,0.204 -0.391,0.427 0,0.222 0.169,0.407 0.391,0.426 7.252,0.621 7.638,1 8.27,8.118 0.019,0.221 0.204,0.39 0.426,0.39 0.221,0 0.407,-0.169 0.426,-0.39 0.632,-7.118 1.018,-7.497 8.27,-8.118 0.222,-0.019 0.391,-0.204 0.391,-0.426 0,-0.223 -0.169,-0.408 -0.391,-0.427 m -21.185,65.491 c -3.019,0 -3.014,4.684 0,4.684 3.018,0 3.013,-4.684 0,-4.684 m 3.746,88.988 c 3.019,0 3.014,-4.684 0,-4.684 -3.018,0 -3.013,4.684 0,4.684 m 6.245,93.046 c 3.019,0 3.014,-4.683 0,-4.683 -3.018,0 -3.013,4.683 0,4.683 m 33.097,50.582 c 3.019,0 3.014,-4.683 0,-4.683 -3.018,0 -3.013,4.683 0,4.683 m 7.494,-89.299 c 3.018,0 3.014,-4.684 0,-4.684 -3.019,0 -3.014,4.684 0,4.684 m 57.451,203.578 c 3.019,0 3.014,-4.684 0,-4.684 -3.018,0 -3.013,4.684 0,4.684 m 3.747,-83.367 c -3.018,0 -3.013,4.683 0,4.683 3.019,0 3.014,-4.683 0,-4.683 m 54.954,88.363 c 3.018,0 3.013,-4.684 0,-4.684 -3.019,0 -3.014,4.684 0,4.684 m 28.725,49.333 c 3.019,0 3.014,-4.684 0,-4.684 -3.018,0 -3.013,4.684 0,4.684 m 21.233,-28.101 c 3.018,0 3.013,-4.684 0,-4.684 -3.019,0 -3.014,4.684 0,4.684 m 15.959,20.157 c 7.252,0.621 7.638,1 8.27,8.118 0.019,0.221 0.205,0.39 0.426,0.39 0.222,0 0.407,-0.169 0.426,-0.39 0.632,-7.118 1.018,-7.497 8.271,-8.118 0.221,-0.019 0.391,-0.204 0.391,-0.427 0,-0.222 -0.17,-0.407 -0.391,-0.426 -7.253,-0.621 -7.639,-1.001 -8.271,-8.118 -0.019,-0.221 -0.204,-0.39 -0.426,-0.39 -0.221,0 -0.407,0.169 -0.426,0.39 -0.632,7.117 -1.018,7.497 -8.27,8.118 -0.221,0.019 -0.391,0.204 -0.391,0.426 0,0.223 0.17,0.408 0.391,0.427 m 59.602,23.556 c 3.018,0 3.013,-4.684 0,-4.684 -3.019,0 -3.014,4.684 0,4.684 m 26.852,-6.869 c 3.019,0 3.014,-4.684 0,-4.684 -3.019,0 -3.014,4.684 0,4.684 M -437.131,182.97 c -3.018,0 -3.013,4.684 0,4.684 3.019,0 3.014,-4.684 0,-4.684 m 276.642,59.013 c 3.018,0 3.013,-4.684 0,-4.684 -3.019,0 -3.014,4.684 0,4.684 m 11.865,61.823 c 3.018,0 3.013,-4.684 0,-4.684 -3.019,0 -3.014,4.684 0,4.684 m 18.092,13.214 c 7.253,0.621 7.639,1.001 8.27,8.118 0.02,0.221 0.205,0.39 0.427,0.39 0.221,0 0.407,-0.169 0.426,-0.39 0.632,-7.117 1.018,-7.497 8.27,-8.118 0.221,-0.019 0.391,-0.204 0.391,-0.426 0,-0.222 -0.17,-0.407 -0.391,-0.426 -7.252,-0.622 -7.638,-1.001 -8.27,-8.119 -0.019,-0.221 -0.205,-0.39 -0.426,-0.39 -0.222,0 -0.407,0.169 -0.427,0.39 -0.631,7.118 -1.017,7.497 -8.27,8.119 -0.221,0.019 -0.391,0.204 -0.391,0.426 0,0.222 0.17,0.407 0.391,0.426 m 10.633,24.879 c 3.019,0 3.014,-4.684 0,-4.684 -3.018,0 -3.013,4.684 0,4.684 m 0.625,-54.642 c -3.019,0 -3.014,4.684 0,4.684 3.018,0 3.013,-4.684 0,-4.684 M 22.603,49.406 c 0,0 -6.093,18.155 -25.893,-18.338 0,0 -45.693,-89.803 -129.464,-129.403 0,0 -11.499,-2.986 -14.621,33.858 0,0 -0.625,13.114 -6.87,33.722 0,0 -4.371,20.607 0.625,40.59 0,0 10.616,34.971 -4.372,74.937 0,0 -19.358,27.477 0.625,94.92 l 21.857,67.443 c 0,0 3.122,11.24 14.362,19.983 0,0 48.709,53.08 16.237,88.051 l -6.245,5.62 c 0,0 -7.494,6.869 -11.865,-3.747 0,0 -4.059,-3.747 -6.245,-3.122 0,0 -6.869,7.493 -15.612,5.932 0,0 -2.81,-0.936 0,-6.245 0,0 2.186,-4.059 0.937,-7.493 l -5.932,-4.059 c 0,0 -6.245,-3.747 -4.059,7.181 0,0 12.801,41.215 -9.368,59.95 0,0 -3.121,2.185 -4.37,9.676 -1.134,6.799 -5.963,12.065 -12.306,14.51 -8.086,3.116 -12.565,1.07 -15.484,-7.013 0,0 -4.996,-3.435 -10.304,-9.992 0,0 -23.417,-37.156 -32.784,-57.764 0,0 -31.849,-47.772 -58.389,-54.329 -26.54,-6.557 -30.287,-11.865 -30.287,-11.865 0,0 -24.354,-23.418 -30.911,-33.409 0,0 -25.916,-34.034 -50.27,-33.722 0,0 -29.662,2.811 -55.578,-20.295 0,0 -7.806,-5.308 -17.797,-4.996 0,0 -11.241,0.937 -3.435,-9.991 0,0 15.3,-22.169 52.768,-35.595 0,0 27.477,-9.055 22.481,-22.481 0,0 -1.249,-12.177 -5.308,-17.485 0,0 -7.494,-8.743 -8.431,-26.228 0,0 0.313,-17.173 -9.054,-34.034 -9.367,-16.861 -11.865,-41.527 -18.11,-52.768 -6.245,-11.24 -10.928,-9.679 -11.241,-19.983 0,0 -6.557,-17.798 -27.477,-6.245 -13.616,7.52 -21.731,27.277 -27.764,40.608 -9.831,21.726 -17.265,44.836 -21.585,68.297 -5.641,30.638 -3.098,63.78 0.824,94.514 3.911,30.652 11.709,61.059 26.469,88.376 0.597,1.106 1.205,2.206 1.824,3.301 11.929,21.091 26.599,42.257 42.408,60.628 25.922,30.122 57.25,55.91 92.759,73.928 36.098,18.316 80.104,30.897 120.7,30.897 0,0 21.861,0.903 2.396,12.733 -10.815,6.573 -23.637,9.188 -35.831,11.95 -36.632,8.298 -74.388,10.125 -111.56,4.441 -284.643,-43.522 -365.702,-402.984 -190.332,-604.002 96.299,-110.382 250.447,-163.319 390.712,-110.26 10.288,3.892 20.386,8.29 30.261,13.136 26.131,12.821 51.874,27.546 73.286,47.487 15.513,14.447 29.5,31.257 42.686,47.831 31.309,39.354 59.51,84.252 71.071,133.732 2.172,9.299 3.704,18.755 4.401,28.282 0.611,8.345 2.187,20.294 -0.535,28.35" /></g><g
           transform="translate(632.6479,541.7769)"
           id="g44"><path
             id="path46"
             style="fill:#ffffff;fill-opacity:1;fill-rule:nonzero;stroke:none"
             d="M 0,0 C 0.08,0 0.081,0.125 0,0.125 -0.08,0.125 -0.081,0 0,0" /></g><g
           transform="translate(636.1984,402.0282)"
           id="g48"><path
             id="path50"
             style="fill:#ffffff;fill-opacity:1;fill-rule:nonzero;stroke:none"
             d="m 0,0 c -0.272,0.238 -0.428,0.581 -0.428,0.942 v 15.327 c 0,0.691 0.558,1.249 1.249,1.249 H 2.07 v 5.829 h -26.644 v -4.913 l 0.252,0.032 c 0.354,0.044 0.718,-0.068 0.987,-0.307 0.27,-0.242 0.422,-0.586 0.417,-0.947 L -23.11,1.267 c -0.009,-0.684 -0.565,-1.234 -1.249,-1.234 h -1.257 c -0.69,0 -1.249,0.559 -1.249,1.249 v 13.711 l -1.138,1.302 c -0.211,0.241 -0.32,0.555 -0.307,0.876 l 0.173,3.994 -5.613,1.021 -0.178,-8.228 c -0.014,-0.679 -0.57,-1.222 -1.249,-1.222 h -0.008 l -86.115,0.617 -54.403,-60.267 c 0.02,-0.619 0.197,-1.244 0.683,-1.604 0.286,-0.1 0.592,-0.193 0.915,-0.281 0.207,-0.013 0.416,-0.015 0.618,-0.028 0.511,-0.031 0.963,-0.13 1.426,-0.326 0.251,-0.02 0.502,-0.041 0.759,-0.04 0.285,0.064 0.581,0.092 0.89,0.061 0.441,0.05 0.884,0.126 1.326,0.261 0.506,0.154 1.059,-0.028 1.372,-0.459 0.075,-0.102 0.182,-0.203 0.316,-0.301 0.616,-0.442 2.241,-1.034 6.208,-0.512 0.055,0.057 0.11,0.115 0.193,0.159 0.682,0.359 1.364,0.719 2.045,1.078 l 42.513,44.119 c 0.231,0.24 0.549,0.377 0.884,0.382 0.337,-0.007 0.654,-0.126 0.892,-0.36 l 52.636,-51.871 c 1.475,-0.891 3.067,-1.514 4.731,-1.849 l 109.168,-0.867 c 0.12,0.116 0.27,0.208 0.471,0.231 1.328,0.147 2.904,0.304 3.737,1.53 0.367,0.539 0.482,1.184 0.869,1.721 0.758,1.05 1.707,1.77 1.626,3.275 -0.044,0.835 -0.36,1.592 -0.823,2.253 z" /></g><g
           transform="translate(527.1499,330.8725)"
           id="g52"><path
             id="path54"
             style="fill:#ffffff;fill-opacity:1;fill-rule:nonzero;stroke:none"
             d="M 0,0 C 1.651,0.276 2.039,2.575 2.063,3.954 H -22.34 l -0.595,-1.162 v -40.677 c 0,-0.846 0.215,-1.475 0.637,-1.873 0.517,-0.484 1.361,-0.586 1.978,-0.586 1.031,0 1.987,0.273 2.168,0.327 0.076,0.023 0.156,0.039 0.235,0.047 0.193,0.078 0.928,0.766 1.872,2.235 l 0.167,36.088 c 0.004,0.674 0.541,1.224 1.215,1.243 z" /></g><g
           transform="translate(629.7338,326.6576)"
           id="g56"><path
             id="path58"
             style="fill:#ffffff;fill-opacity:1;fill-rule:nonzero;stroke:none"
             d="M 0,0 H -7.702 V -6.952 L 0,-6.937 Z" /></g><g
           transform="translate(639.9334,326.6576)"
           id="g60"><path
             id="path62"
             style="fill:#ffffff;fill-opacity:1;fill-rule:nonzero;stroke:none"
             d="M 0,0 H -7.702 V -6.932 L 0,-6.917 Z" /></g><g
           transform="translate(622.0319,308.5819)"
           id="g64"><path
             id="path66"
             style="fill:#ffffff;fill-opacity:1;fill-rule:nonzero;stroke:none"
             d="M 0,0 7.702,0.015 V 7.043 L 0,7.043 Z" /></g><g
           transform="translate(632.2316,308.6017)"
           id="g68"><path
             id="path70"
             style="fill:#ffffff;fill-opacity:1;fill-rule:nonzero;stroke:none"
             d="M 0,0 7.702,0.015 V 7.024 H 0 Z" /></g><g
           transform="translate(432.1078,368.7423)"
           id="g72"><path
             id="path74"
             style="fill:#ffffff;fill-opacity:1;fill-rule:nonzero;stroke:none"
             d="M 0,0 C -0.002,0.025 -0.012,0.047 -0.015,0.072 0,0.066 0.016,0.064 0.032,0.059 0.022,0.039 0.01,0.02 0,0 m -8.109,-22.777 c 0.055,0.037 0.103,0.084 0.157,0.122 0.03,-0.051 0.073,-0.093 0.109,-0.141 -0.089,0.006 -0.176,0.012 -0.266,0.019 m 90.1,138.87 c 0.062,0.02 0.124,0.039 0.186,0.058 -0.083,-0.05 -0.165,-0.103 -0.246,-0.157 0.021,0.032 0.039,0.066 0.06,0.099 m 3.693,1.147 c 0.005,-0.011 0.01,-0.022 0.015,-0.033 -0.028,0.006 -0.054,0.008 -0.081,0.013 0.022,0.006 0.044,0.013 0.066,0.02 M 39.457,-23.66 c -2.697,0.012 -5.316,0.738 -7.696,2.034 -0.881,0.48 -1.346,1.175 -1.493,1.918 -2.594,0.107 -4.905,1.192 -6.153,1.903 -0.513,0.18 -0.993,0.413 -1.365,0.739 -0.129,0.023 -0.488,0.116 -0.653,0.471 -0.078,0.165 -0.144,0.506 -0.035,1.073 0.013,0.566 0.244,1.118 0.591,1.62 0.279,0.56 0.667,1.22 1.204,2.002 l 56.849,63.384 h 83.745 c 0.225,-0.043 0.514,-0.015 0.794,0.179 0.648,0.448 0.949,1.554 0.949,3.48 v 6.728 c 0.608,0.299 2.168,0.948 4.787,1.253 h 17.694 l 0.27,0.062 c 0.208,0.103 2.048,1.05 2.111,2.636 0.042,1.017 -0.654,1.962 -2.066,2.808 l -2.933,0.961 c -0.735,2.045 3.265,1.179 4.24,1.573 0.931,0.377 1.876,1.101 2.207,2.122 1.182,3.653 -5.125,4.873 -4.881,6.872 0.044,0.362 1.357,1.187 1.622,1.841 0.442,1.09 0.381,2.446 -0.23,3.46 -0.619,1.026 -1.621,1.483 -2.666,1.876 -1.268,0.477 -2.445,0.828 -3.482,1.305 0.011,0.502 -0.186,1.015 -0.686,1.378 -1.46,1.059 -3.394,1.828 -0.668,1.405 0.519,-0.08 0.98,-0.135 1.504,-0.128 1.142,0.015 2.361,0.228 3.374,0.804 1.919,1.091 3.106,3.183 1.936,5.238 -1.455,2.554 -5.39,2.015 -6.619,4.203 -0.647,1.152 -0.007,1.817 -0.326,3.195 -0.384,1.667 -1.861,2.731 -2.74,4.119 1.655,0.464 3.046,1.417 3.279,3.259 0.55,4.355 -5.644,4.408 -7.932,6.108 -2.735,2.032 -0.159,1.448 1.096,2.792 0.851,0.912 1.133,2.017 0.915,3.264 -0.344,1.97 -2.037,2.889 -3.412,4.026 -3.115,2.577 -5.403,5.308 -7.089,9.035 -0.139,0.307 -0.33,0.512 -0.546,0.645 -2.15,4.549 -4.682,11.75 -9.892,9.534 -2.509,-1.068 -3.881,-4.653 -5.815,-6.422 -2.182,-1.996 -6.105,-2.81 -7.492,-5.426 -0.246,-0.463 -0.331,-1.164 0,-1.618 0.268,-0.368 0.512,-0.612 0.753,-0.812 -4.12,-2.054 -13.003,-5.905 -8.483,-9.965 -1.256,-0.952 -2.586,-1.79 -4.07,-2.412 -1.319,-0.554 -3.155,-0.888 -3.926,-2.309 -1.398,-2.58 1.027,-4.006 3.303,-4.738 -1.071,-0.885 -2.366,-1.253 -3.673,-2.174 -0.901,-0.636 -1.599,-1.182 -1.829,-2.386 -0.406,-2.127 0.961,-3.501 2.575,-4.402 -1.787,-1.913 -3.99,-3.278 -6.654,-4.685 -1.947,-1.029 -3.878,-2.783 -2.971,-5.291 1.048,-2.895 3.396,-1.215 5.331,-2.055 0.848,-0.368 1.108,-1.301 2.104,-1.593 0.699,-0.206 1.649,-0.041 2.098,-0.145 -1.588,-2.758 -3.925,-4.776 -7.067,-5.747 -1.759,-0.544 -3.626,-0.629 -3.84,-2.897 -0.399,-4.207 4.654,-4.614 8.326,-4.598 -1.859,-2.03 -4.799,-3.653 -3.14,-6.666 0.996,-1.809 2.647,-2.123 4.318,-1.803 -0.971,-1.069 -2.205,-1.849 -3.974,-2.226 -0.995,-0.211 -1.962,-0.727 -2.919,-1.165 -0.097,-0.04 -0.192,-0.081 -0.284,-0.126 -0.556,-0.243 -1.109,-0.446 -1.662,-0.536 -1.366,0.578 -2.75,1.218 -3.995,2.028 -1.151,0.748 -1.106,1.573 -0.679,2.575 0.933,0.085 1.914,0.202 2.144,0.292 1.609,0.622 3.237,1.996 3.404,3.882 0.162,1.829 -0.819,2.819 -2.406,3.327 -0.909,0.291 -2.095,0.158 -2.946,0.599 -1.155,0.596 -2.032,1.867 -2.887,2.846 -0.229,0.261 -3.744,3.796 -3.638,3.905 0.038,0.039 0.063,0.08 0.096,0.119 2.044,0.277 3.947,1.338 4.558,3.523 0.282,1.012 0.297,1.568 -0.212,2.439 -1.303,2.229 -4.032,2.242 -6.122,3.722 1.087,0.433 1.891,1.27 1.869,2.8 -0.02,1.378 -0.714,2.246 -1.763,3.028 -3.196,2.381 -6.685,2.572 -9.255,6.269 -2.747,3.952 -3.817,12.27 -7.999,14.752 -3.31,1.963 -5.655,-0.844 -7.132,-3.772 -0.084,-0.168 -0.129,-0.333 -0.157,-0.495 -1.455,-2.136 -3.288,-3.857 -5.665,-5.043 -1.953,-0.975 -5.39,-1.249 -6.919,-3.037 -1.589,-1.857 -0.482,-3.084 1.007,-4.058 -2.6,-2.156 -5.202,-2.935 -8.619,-4.006 -1.568,-0.492 -2.61,-0.733 -3.082,-2.547 C 55.049,96.07 56.421,94.22 58.298,93.1 57.559,92.826 56.866,92.508 56.26,91.883 55.539,91.139 55.452,90.106 54.546,89.429 53.902,88.947 52.947,88.834 52.198,88.628 51.1,88.326 49.456,88.246 48.696,87.199 c -1.168,-1.61 0.017,-3.968 1.329,-5.037 0.813,-0.661 1.79,-1.049 2.824,-1.105 1.261,-0.068 2.644,0.957 1.011,-0.374 -0.162,-0.133 -0.276,-0.277 -0.362,-0.426 -1.813,-1.434 -3.912,-2.246 -5.758,-4.304 -0.984,-1.097 -1.929,-2.268 -1.574,-3.904 0.594,-2.731 2.667,-3.013 4.779,-2.509 -1.605,-1.871 -3.741,-3.177 -5.626,-4.943 -0.422,-0.395 -0.519,-1.014 -0.402,-1.56 0.843,-3.922 0.657,-3.135 -3.189,-6.018 -1.34,-1.005 -3.093,-1.28 -3.042,-3.515 0.16,-7.03 12.046,-0.229 10.627,-6.216 L 37.654,34.299 c -2.226,-0.738 -4.832,-0.495 -5.311,2.42 -0.086,0.526 -0.353,0.855 -0.694,1.023 -0.151,0.166 -0.33,0.285 -0.524,0.365 -0.105,0.926 -0.192,1.864 -0.557,2.752 -0.648,1.579 -1.886,2.458 -2.903,3.742 -2.629,3.316 -0.895,8.185 -3.792,11.333 -1.772,1.926 -4.597,2.342 -6.528,0.423 -0.805,-0.799 -1.383,-1.882 -1.918,-2.956 -0.133,-0.122 -0.256,-0.273 -0.355,-0.471 -2.604,-5.223 -5.18,-9.809 -9.85,-13.401 -2.239,-1.723 -4.619,-2.712 -5.44,-5.632 -0.21,-0.75 0.163,-1.376 0.718,-1.81 0.392,-0.307 0.727,-0.467 1.043,-0.56 -2.296,-2.023 -4.799,-3.042 -7.503,-5.015 -1.138,-0.83 -2.241,-1.787 -2.276,-3.358 -0.055,-2.481 1.173,-2.848 2.527,-2.946 0.4,-0.214 0.843,-0.385 1.362,-0.453 0.544,-0.072 1.082,-0.183 1.618,-0.309 0.107,-0.132 0.203,-0.283 0.273,-0.471 0.373,-0.996 1.33,-1.467 2.294,-0.959 C 0.03,16.997 0.222,15.978 0.414,14.959 0.317,14.858 0.24,14.753 0.175,14.646 -0.768,13.765 -1.849,12.989 -3.026,12.273 -4.619,11.305 -6.273,10.476 -6.993,8.594 -7.573,7.079 -7.358,5.788 -8.206,4.179 -8.469,3.679 -8.916,3.378 -9.139,2.832 -9.183,2.724 -9.208,2.623 -9.242,2.518 c -2.399,-3.334 2.011,-6.167 5.299,-4.752 -0.129,-0.232 -0.273,-0.454 -0.443,-0.661 -0.555,-0.886 -1.349,-1.694 -1.569,-2.765 -0.208,-1.006 0.035,-1.784 0.459,-2.669 0.16,-0.335 0.528,-0.555 0.695,-0.882 0.842,-1.638 -0.344,-2.77 -1.713,-3.638 -0.28,-0.178 -0.464,-0.403 -0.582,-0.648 -0.291,-0.218 -0.582,-0.435 -0.903,-0.62 -0.991,-0.57 -2.071,-0.81 -2.829,-1.764 -1.408,-1.771 -1.246,-3.633 -4.229,-3.857 -1.029,-0.078 -1.754,-0.961 -1.506,-2.03 0.9,-3.877 6.279,-3.877 9.378,-4.186 2.41,-0.24 4.712,-0.162 6.891,0.366 0.87,-1.566 1.165,-3.885 1.207,-4.964 -1.15,-3.394 -1.321,-5.555 -0.524,-6.608 0.279,-0.365 0.635,-0.534 0.934,-0.585 l 27.528,-20.02 c 1.232,-0.952 2.533,-1.432 3.88,-1.432 0.32,0 0.643,0.026 0.967,0.081 3.625,0.604 6.201,4.391 6.309,4.553 l 0.111,0.164 -0.069,24.134 c 0.185,2.687 -0.023,4.882 -0.592,6.605" /></g><g
           transform="translate(689.4489,327.4417)"
           id="g76"><path
             id="path78"
             style="fill:#ffffff;fill-opacity:1;fill-rule:nonzero;stroke:none"
             d="m 0,0 -45.08,-0.089 c -0.724,-1.061 -1.07,-2.41 -0.808,-3.849 0.322,-1.773 1.599,-3.135 3.207,-3.75 L 1.258,-7.601 C 2.125,-6.023 2.41,-4.637 2.405,-3.478 2.177,-1.956 1.361,-0.563 0,0" /></g><g
           transform="translate(705.6247,319.3048)"
           id="g80"><path
             id="path82"
             style="fill:#ffffff;fill-opacity:1;fill-rule:nonzero;stroke:none"
             d="M 0,0 0.011,0.12 C 0.032,0.075 0.05,0.029 0.072,-0.016 0.048,-0.01 0.024,-0.005 0,0 m 18.392,26.349 c -1.377,0.463 -3.221,1.648 -4.029,2.872 -1.22,1.847 -0.366,-0.12 0.052,1.749 0.197,0.883 1.016,1.672 0.784,2.828 -0.284,1.412 -1.288,1.999 -2.311,2.754 -2.589,1.91 -4.703,3.171 -6.192,5.33 -0.019,0.107 -0.05,0.219 -0.095,0.335 -1.401,3.573 -0.389,1.624 1.779,1.324 1.274,-0.176 2.564,0.011 3.754,0.488 1.731,0.696 4.375,2.676 3.791,4.877 -0.304,1.145 -1.087,1.174 -1.887,1.827 -1.321,1.079 -1.665,2.568 -2.82,3.676 C 9.856,55.716 7.905,56.04 6.26,56.941 5.494,57.36 4.786,57.817 4.138,58.319 4.159,58.701 4.042,59.1 3.72,59.458 c -0.524,0.507 -0.898,1.065 -1.136,1.669 3.486,-0.677 8.135,-0.506 8.544,3.748 0.162,1.676 -0.884,2.751 -2.276,3.436 -1.747,0.86 -3.036,1.049 -4.341,2.764 -0.649,0.851 -1.445,1.912 -2.056,3.032 3.181,-0.268 7.159,2.916 4.87,6.125 -0.554,0.777 -1.357,1.196 -2.182,1.609 -1.611,0.806 -2.421,1.421 -3.462,2.946 -0.852,1.248 -2.016,2.099 -3.166,2.975 0.929,0.317 1.622,0.947 1.805,2.063 0.209,1.272 -0.396,2.012 -1.31,2.805 -1.019,0.884 -2.453,1.304 -3.582,2.058 -2.141,1.43 -3.8,3.178 -5.353,5.213 -2.066,2.706 -4.179,5.868 -5.314,9.104 -0.575,1.64 -0.75,3.296 -2.193,4.455 -2.087,1.677 -3.409,0.998 -4.529,-0.279 -0.417,-0.047 -0.819,-0.268 -1.101,-0.739 -2.456,-4.113 -5.058,-8.616 -9.36,-10.978 -2.524,-1.387 -5.174,-1.289 -6.954,-3.726 -0.794,-1.087 0.326,-2.256 1.348,-2.389 -1.225,0.16 -4.413,-1.192 -5.832,-1.569 -0.281,-0.075 -0.515,-0.095 -0.788,-0.217 -0.907,-0.405 -1.387,-0.678 -1.702,-1.66 -0.01,-0.03 -0.011,-0.058 -0.02,-0.088 -0.724,-0.377 -1.194,-1.239 -0.638,-2.146 0.869,-1.42 1.873,-2.812 3.531,-3.3 0.743,-0.218 1.508,-0.199 2.24,0.041 0.036,0.012 0.104,0.046 0.185,0.09 -0.018,-0.808 0.723,-1.667 1.528,-1.617 0.06,-0.222 0.057,-0.439 -0.051,-0.644 -0.127,-0.473 -0.473,-0.83 -0.864,-1.098 -0.347,-0.236 -0.546,-0.545 -0.64,-0.873 -0.337,-0.289 -0.691,-0.566 -1.081,-0.818 -0.899,-0.579 -2.221,-0.832 -3.114,-1.45 -1.208,-0.835 -2.125,-1.624 -1.923,-3.268 0.425,-3.448 4.359,-3.091 7.466,-2.468 -1.466,-1.466 -4.287,-2.165 -5.585,-3.637 -0.279,-0.055 -0.562,-0.088 -0.851,-0.101 L -5.704,33.697 c 0.343,-0.313 0.522,-0.728 0.575,-1.156 0.006,-0.011 0.014,-0.018 0.02,-0.029 2.019,-3.657 1.458,-7.867 -1.191,-11.026 -0.197,-0.235 -0.44,-0.406 -0.698,-0.547 0.115,-1.61 0.345,-3.23 -0.015,-4.889 -0.122,-0.562 -0.327,-1.081 -0.577,-1.576 -0.157,-1.016 -0.461,-1.907 -0.96,-2.49 2.813,-3.822 2.32,-7.499 0.654,-11.271 0.337,-0.517 0.684,-1.094 0.752,-1.222 0.494,-0.935 0.795,-1.891 0.981,-2.932 0.209,-1.169 0.209,-2.331 0.097,-3.486 5.304,0.189 11.624,-1.328 14.831,3.893 0.457,0.745 0.137,1.726 -0.56,2.173 C 5.984,0.284 4.616,2.145 4.1,4.721 4.624,4.49 5.149,4.259 5.673,4.028 6.765,3.902 7.84,3.411 8.981,3.335 c 3.018,-0.198 5.519,0.683 8.037,2.336 0.803,0.527 1.094,1.778 0.316,2.494 -2.165,1.989 -5.227,4.389 -7.57,7.134 -0.05,0.138 -0.116,0.277 -0.22,0.417 -1.048,1.41 -3.45,4.658 -0.819,6.198 0.641,0.375 3.783,-0.944 4.968,-0.905 2.341,0.076 3.95,0.851 5.536,2.588 0.848,0.927 0.436,2.323 -0.837,2.752" /></g><g
           transform="translate(690.5963,315.7706)"
           id="g84"><path
             id="path86"
             style="fill:#ffffff;fill-opacity:1;fill-rule:nonzero;stroke:none"
             d="M 0,0 C -0.113,0.093 -0.237,0.176 -0.383,0.237 -0.435,0.258 -0.467,0.294 -0.51,0.322 L -45.735,0.233 c -0.634,-0.655 -1.098,-1.476 -1.285,-2.422 -0.391,-1.986 0.361,-3.819 1.703,-4.955 l 43.853,0.085 c 0.077,0.073 0.174,0.134 0.293,0.176 1.513,0.534 1.848,2.062 1.931,3.487 0.038,0.653 0.077,1.557 -0.129,2.32 C 0.457,-0.707 0.246,-0.347 0,0" /></g><g
           transform="translate(685.0073,303.7079)"
           id="g88"><path
             id="path90"
             style="fill:#ffffff;fill-opacity:1;fill-rule:nonzero;stroke:none"
             d="m 0,0 -117.968,-0.228 c -1.723,0 -3.125,1.398 -3.128,3.116 -0.003,0.833 0.32,1.619 0.909,2.21 0.59,0.591 1.373,0.916 2.207,0.919 l 48.254,0.092 c 0.546,0.524 0.907,1.174 1.05,1.904 0.208,1.06 -0.004,2.119 -0.584,2.976 l -48.708,-0.096 c -1.723,0 -3.125,1.398 -3.128,3.116 -0.003,0.833 0.32,1.619 0.909,2.21 0.59,0.591 1.373,0.916 2.207,0.919 l 48.011,0.095 c 1.229,0.496 2.12,1.548 2.345,2.784 0.146,0.8 0.048,1.607 -0.274,2.326 l -50.42,-0.1 c -1.723,0 -3.125,1.398 -3.128,3.116 -0.004,1.721 1.394,3.125 3.116,3.129 L 5.21,28.732 c 0.029,0.01 0.058,0.021 0.088,0.03 0.511,0.165 0.924,0.436 1.233,0.808 0.236,1.265 0.063,2.224 -0.516,2.862 l -116.63,0.208 c -0.309,0 -0.608,0.116 -0.837,0.324 l -3.745,3.403 -35.689,37.785 c -1.313,1.158 -2.704,1.732 -4.101,1.636 -0.138,-0.011 -0.272,-0.039 -0.408,-0.065 -1.243,-0.333 -1.461,-0.801 -1.424,-1.549 0.015,-0.33 0.103,-0.67 0.269,-1.038 7.204,-7.502 13.618,-14.318 19.604,-20.835 0.939,-1.022 1.999,-2.069 3.122,-3.176 2.457,-2.425 5.239,-5.172 7.189,-8.192 0.759,-0.908 1.505,-1.823 2.221,-2.758 1.254,-1.645 1.531,-3.406 0.765,-4.697 -0.187,-0.987 -0.844,-1.882 -1.749,-2.348 -0.711,-0.366 -1.411,-0.419 -1.974,-0.46 -0.245,-0.018 -0.494,-0.033 -0.74,-0.089 -0.145,-0.127 -0.202,-0.662 -0.222,-0.839 -0.055,-0.506 -0.287,-0.954 -0.64,-1.282 l -0.166,-45.774 c -0.004,-0.829 -0.011,-1.657 -0.02,-2.485 -0.017,-1.644 -0.033,-3.288 -0.009,-4.93 v -0.101 c 0.022,-0.014 0.043,-0.027 0.065,-0.04 0.146,-0.089 0.289,-0.182 0.42,-0.287 1.039,-0.829 1.183,-2.027 1.298,-2.989 0.057,-0.478 0.117,-0.974 0.277,-1.229 0.677,-1.077 1.882,-1.745 3.144,-1.745 h 103.056 c 1.889,0 3.51,1.271 3.856,3.021 0.211,1.072 -0.008,2.139 -0.602,3.002 l -97.814,-0.234 c -1.724,0 -3.126,1.397 -3.13,3.115 -0.003,1.721 1.393,3.126 3.116,3.129 l 102.38,0.246 c 0.875,0.554 1.477,1.409 1.67,2.385 0.313,1.592 -0.343,3.173 -1.643,4.026 l -104.892,-0.195 c -1.723,0 -3.125,1.398 -3.128,3.116 -0.003,0.833 0.32,1.619 0.909,2.21 0.59,0.591 1.373,0.916 2.207,0.919 L 2.388,-6.156 c 0.383,0.464 0.64,0.993 0.75,1.554 0.219,1.106 -0.013,2.203 -0.652,3.085 C 1.889,-0.693 0.985,-0.143 0,0" /></g><g
           transform="translate(627.4243,468.1471)"
           id="g92"><path
             id="path94"
             style="fill:#ffffff;fill-opacity:1;fill-rule:nonzero;stroke:none"
             d="m 0,0 c 3.524,4.472 3.066,9.129 1.089,14.3 -2.828,7.394 -6.24,13.641 -4.087,21.822 1.758,6.681 6.754,11.907 9.321,18.257 1.92,4.749 2.511,9.59 1.326,14.575 C 7.255,70.61 4.943,69.86 5.165,68.269 6.267,60.386 -0.079,55.161 -4.265,49.416 -7.706,44.693 -10.181,39.818 -10.924,33.972 -12.413,22.247 -5.176,12.114 -3.205,0.846 -2.97,-0.497 -0.863,-1.096 0,0" /></g><g
           transform="translate(636.1037,504.8157)"
           id="g96"><path
             id="path98"
             style="fill:#ffffff;fill-opacity:1;fill-rule:nonzero;stroke:none"
             d="m 0,0 c 0.427,1.682 -2.104,2.379 -2.597,0.716 -1.893,-6.394 -1.426,-11.371 1.144,-17.63 3.307,-8.056 7.523,-14.992 2.822,-23.62 -4.721,-8.664 -13.768,-20.905 -4.267,-29.984 0.8,-0.765 2.447,-0.529 2.667,0.704 1.024,5.734 0.104,11.728 2.744,17.118 2.563,5.23 6.676,9.34 7.953,15.203 1.109,5.087 0.277,10.352 -1.762,15.083 C 5.748,-15.55 -2.04,-8.04 0,0" /></g><g
           transform="translate(484.2712,517.2997)"
           id="g100"><path
             id="path102"
             style="fill:#ffffff;fill-opacity:1;fill-rule:nonzero;stroke:none"
             d="m 0,0 c 10.586,-0.907 11.149,-1.461 12.071,-11.85 0.028,-0.322 0.299,-0.569 0.622,-0.569 0.323,0 0.594,0.247 0.622,0.569 0.922,10.389 1.486,10.943 12.071,11.85 0.324,0.027 0.571,0.298 0.571,0.622 0,0.324 -0.247,0.595 -0.571,0.622 -10.585,0.907 -11.149,1.461 -12.071,11.849 -0.028,0.323 -0.299,0.57 -0.622,0.57 -0.323,0 -0.594,-0.247 -0.622,-0.57 C 11.149,2.705 10.586,2.151 0,1.244 -0.323,1.217 -0.571,0.946 -0.571,0.622 -0.571,0.298 -0.323,0.027 0,0" /></g><g
           transform="translate(358.7559,294.3067)"
           id="g104"><path
             id="path106"
             style="fill:#ffffff;fill-opacity:1;fill-rule:nonzero;stroke:none"
             d="m 0,0 c -10.586,0.907 -11.149,1.461 -12.071,11.849 -0.028,0.323 -0.299,0.57 -0.622,0.57 -0.323,0 -0.594,-0.247 -0.622,-0.57 C -14.237,1.461 -14.801,0.907 -25.386,0 c -0.324,-0.027 -0.571,-0.298 -0.571,-0.622 0,-0.324 0.247,-0.595 0.571,-0.622 10.585,-0.908 11.149,-1.461 12.071,-11.85 0.028,-0.322 0.299,-0.569 0.622,-0.569 0.323,0 0.594,0.247 0.622,0.569 0.922,10.389 1.485,10.942 12.071,11.85 0.323,0.027 0.571,0.298 0.571,0.622 C 0.571,-0.298 0.323,-0.027 0,0" /></g><g
           transform="translate(680.844,206.0683)"
           id="g108"><path
             id="path110"
             style="fill:#ffffff;fill-opacity:1;fill-rule:nonzero;stroke:none"
             d="m 0,0 c -10.586,0.907 -11.149,1.461 -12.071,11.849 -0.028,0.323 -0.299,0.57 -0.622,0.57 -0.323,0 -0.594,-0.247 -0.622,-0.57 C -14.237,1.461 -14.801,0.907 -25.386,0 c -0.323,-0.027 -0.571,-0.298 -0.571,-0.622 0,-0.324 0.248,-0.595 0.571,-0.622 10.585,-0.908 11.149,-1.461 12.071,-11.85 0.028,-0.322 0.299,-0.569 0.622,-0.569 0.323,0 0.594,0.247 0.622,0.569 0.922,10.389 1.485,10.942 12.071,11.85 0.323,0.027 0.571,0.298 0.571,0.622 C 0.571,-0.298 0.323,-0.027 0,0" /></g><g
           transform="translate(655.1058,584.3998)"
           id="g112"><path
             id="path114"
             style="fill:#ffffff;fill-opacity:1;fill-rule:nonzero;stroke:none"
             d="m 0,0 c 0,-0.324 0.248,-0.595 0.571,-0.622 10.585,-0.907 11.149,-1.461 12.071,-11.85 0.028,-0.322 0.299,-0.569 0.622,-0.569 0.323,0 0.594,0.247 0.622,0.569 0.922,10.389 1.486,10.943 12.071,11.85 0.323,0.027 0.571,0.298 0.571,0.622 0,0.324 -0.248,0.595 -0.571,0.622 -10.585,0.907 -11.149,1.461 -12.071,11.849 -0.028,0.323 -0.299,0.57 -0.622,0.57 -0.323,0 -0.594,-0.247 -0.622,-0.57 C 11.72,2.083 11.156,1.529 0.571,0.622 0.248,0.595 0,0.324 0,0" /></g><g
           transform="translate(619.0881,679.5419)"
           id="g116"><path
             id="path118"
             style="fill:#ffffff;fill-opacity:1;fill-rule:nonzero;stroke:none"
             d="m 0,0 c 7.252,-0.622 7.638,-1.001 8.27,-8.118 0.019,-0.221 0.205,-0.391 0.426,-0.391 0.222,0 0.407,0.17 0.426,0.391 0.632,7.117 1.018,7.496 8.271,8.118 0.221,0.019 0.391,0.204 0.391,0.426 0,0.222 -0.17,0.408 -0.391,0.426 C 10.14,1.474 9.754,1.853 9.122,8.97 9.103,9.191 8.918,9.361 8.696,9.361 8.475,9.361 8.289,9.191 8.27,8.97 7.638,1.853 7.252,1.474 0,0.852 -0.221,0.834 -0.391,0.648 -0.391,0.426 -0.391,0.204 -0.221,0.019 0,0" /></g><g
           transform="translate(748.1584,722.3404)"
           id="g120"><path
             id="path122"
             style="fill:#ffffff;fill-opacity:1;fill-rule:nonzero;stroke:none"
             d="m 0,0 c 7.252,-0.622 7.638,-1.001 8.27,-8.118 0.019,-0.221 0.205,-0.391 0.426,-0.391 0.222,0 0.407,0.17 0.426,0.391 0.632,7.117 1.018,7.496 8.271,8.118 0.221,0.019 0.391,0.204 0.391,0.426 0,0.222 -0.17,0.408 -0.391,0.426 C 10.14,1.474 9.754,1.853 9.122,8.97 9.103,9.191 8.918,9.361 8.696,9.361 8.475,9.361 8.289,9.191 8.27,8.97 7.638,1.853 7.252,1.474 0,0.852 -0.221,0.834 -0.391,0.648 -0.391,0.426 -0.391,0.204 -0.221,0.019 0,0" /></g><g
           transform="translate(681.2076,485.0573)"
           id="g124"><path
             id="path126"
             style="fill:#ffffff;fill-opacity:1;fill-rule:nonzero;stroke:none"
             d="m 0,0 c -0.632,-7.117 -1.018,-7.497 -8.27,-8.118 -0.222,-0.019 -0.391,-0.204 -0.391,-0.426 0,-0.222 0.169,-0.408 0.391,-0.426 7.252,-0.622 7.638,-1.001 8.27,-8.119 0.019,-0.221 0.205,-0.39 0.426,-0.39 0.222,0 0.407,0.169 0.426,0.39 0.632,7.118 1.018,7.497 8.27,8.119 0.222,0.018 0.391,0.204 0.391,0.426 0,0.222 -0.169,0.407 -0.391,0.426 C 1.87,-7.497 1.484,-7.117 0.852,0 0.833,0.221 0.648,0.39 0.426,0.39 0.205,0.39 0.019,0.221 0,0" /></g><g
           transform="translate(296.7418,535.1687)"
           id="g128"><path
             id="path130"
             style="fill:#ffffff;fill-opacity:1;fill-rule:nonzero;stroke:none"
             d="m 0,0 c 0.221,0.019 0.391,0.204 0.391,0.426 0,0.222 -0.17,0.407 -0.391,0.426 -7.252,0.622 -7.638,1.001 -8.27,8.118 -0.019,0.221 -0.205,0.391 -0.426,0.391 -0.222,0 -0.407,-0.17 -0.426,-0.391 -0.632,-7.117 -1.018,-7.496 -8.271,-8.118 -0.221,-0.019 -0.391,-0.204 -0.391,-0.426 0,-0.222 0.17,-0.407 0.391,-0.426 7.253,-0.622 7.639,-1.001 8.271,-8.118 0.019,-0.222 0.204,-0.391 0.426,-0.391 0.221,0 0.407,0.169 0.426,0.391 C -7.638,-1.001 -7.252,-0.622 0,0" /></g><g
           transform="translate(539.1603,244.1786)"
           id="g132"><path
             id="path134"
             style="fill:#ffffff;fill-opacity:1;fill-rule:nonzero;stroke:none"
             d="m 0,0 c -7.252,0.621 -7.638,1.001 -8.27,8.118 -0.019,0.221 -0.205,0.39 -0.426,0.39 -0.222,0 -0.407,-0.169 -0.426,-0.39 C -9.754,1.001 -10.14,0.621 -17.393,0 c -0.221,-0.019 -0.391,-0.204 -0.391,-0.426 0,-0.222 0.17,-0.408 0.391,-0.426 7.253,-0.622 7.639,-1.001 8.271,-8.119 0.019,-0.221 0.204,-0.39 0.426,-0.39 0.221,0 0.407,0.169 0.426,0.39 0.632,7.118 1.018,7.497 8.27,8.119 0.221,0.018 0.391,0.204 0.391,0.426 C 0.391,-0.204 0.221,-0.019 0,0" /></g><g
           transform="translate(840.8957,327.084)"
           id="g136"><path
             id="path138"
             style="fill:#ffffff;fill-opacity:1;fill-rule:nonzero;stroke:none"
             d="m 0,0 c -7.252,0.621 -7.638,1.001 -8.27,8.118 -0.019,0.221 -0.205,0.39 -0.426,0.39 -0.222,0 -0.407,-0.169 -0.426,-0.39 C -9.754,1.001 -10.14,0.621 -17.393,0 c -0.221,-0.019 -0.391,-0.204 -0.391,-0.426 0,-0.222 0.17,-0.408 0.391,-0.426 7.253,-0.622 7.639,-1.001 8.271,-8.119 0.019,-0.221 0.204,-0.39 0.426,-0.39 0.221,0 0.407,0.169 0.426,0.39 0.632,7.118 1.018,7.497 8.27,8.119 0.221,0.018 0.391,0.204 0.391,0.426 C 0.391,-0.204 0.221,-0.019 0,0" /></g><g
           transform="translate(263.5382,375.2555)"
           id="g140"><path
             id="path142"
             style="fill:#ffffff;fill-opacity:1;fill-rule:nonzero;stroke:none"
             d="m 0,0 c -7.252,0.621 -7.638,1.001 -8.27,8.118 -0.019,0.221 -0.205,0.39 -0.426,0.39 -0.222,0 -0.407,-0.169 -0.426,-0.39 C -9.754,1.001 -10.14,0.621 -17.393,0 c -0.221,-0.019 -0.391,-0.204 -0.391,-0.426 0,-0.222 0.17,-0.408 0.391,-0.426 7.253,-0.622 7.639,-1.001 8.271,-8.119 0.019,-0.221 0.204,-0.39 0.426,-0.39 0.221,0 0.407,0.169 0.426,0.39 0.632,7.118 1.018,7.497 8.27,8.119 0.221,0.018 0.391,0.204 0.391,0.426 C 0.391,-0.204 0.221,-0.019 0,0" /></g><g
           transform="translate(475.0041,832.3209)"
           id="g144"><path
             id="path146"
             style="fill:#ffffff;fill-opacity:1;fill-rule:nonzero;stroke:none"
             d="m 0,0 c 7.252,-0.622 7.638,-1.001 8.27,-8.118 0.019,-0.221 0.205,-0.391 0.426,-0.391 0.222,0 0.407,0.17 0.426,0.391 0.632,7.117 1.018,7.496 8.271,8.118 0.221,0.019 0.391,0.204 0.391,0.426 0,0.222 -0.17,0.408 -0.391,0.426 C 10.14,1.474 9.754,1.853 9.122,8.97 9.103,9.191 8.918,9.361 8.696,9.361 8.475,9.361 8.289,9.191 8.27,8.97 7.638,1.853 7.252,1.474 0,0.852 -0.221,0.834 -0.391,0.648 -0.391,0.426 -0.391,0.204 -0.221,0.019 0,0" /></g><g
           transform="translate(331.6176,719.6884)"
           id="g148"><path
             id="path150"
             style="fill:#ffffff;fill-opacity:1;fill-rule:nonzero;stroke:none"
             d="m 0,0 c -7.252,0.621 -7.638,1.001 -8.27,8.118 -0.019,0.221 -0.205,0.39 -0.426,0.39 -0.222,0 -0.407,-0.169 -0.426,-0.39 C -9.754,1.001 -10.14,0.621 -17.393,0 c -0.221,-0.019 -0.391,-0.204 -0.391,-0.426 0,-0.222 0.17,-0.407 0.391,-0.426 7.253,-0.622 7.639,-1.001 8.271,-8.119 0.019,-0.221 0.204,-0.39 0.426,-0.39 0.221,0 0.407,0.169 0.426,0.39 0.632,7.118 1.018,7.497 8.27,8.119 0.221,0.019 0.391,0.204 0.391,0.426 C 0.391,-0.204 0.221,-0.019 0,0" /></g><g
           transform="translate(315.416,322.8056)"
           id="g152"><path
             id="path154"
             style="fill:#ffffff;fill-opacity:1;fill-rule:nonzero;stroke:none"
             d="M 0,0 C -3.014,0 -3.019,-4.684 0,-4.684 3.014,-4.684 3.019,0 0,0" /></g><g
           transform="translate(298.5552,385.8773)"
           id="g156"><path
             id="path158"
             style="fill:#ffffff;fill-opacity:1;fill-rule:nonzero;stroke:none"
             d="M 0,0 C -3.014,0 -3.019,-4.684 0,-4.684 3.014,-4.684 3.019,0 0,0" /></g><g
           transform="translate(324.7831,410.2317)"
           id="g160"><path
             id="path162"
             style="fill:#ffffff;fill-opacity:1;fill-rule:nonzero;stroke:none"
             d="M 0,0 C -3.014,0 -3.019,-4.684 0,-4.684 3.014,-4.684 3.019,0 0,0" /></g><g
           transform="translate(375.9898,327.1769)"
           id="g164"><path
             id="path166"
             style="fill:#ffffff;fill-opacity:1;fill-rule:nonzero;stroke:none"
             d="M 0,0 C -3.014,0 -3.019,-4.684 0,-4.684 3.014,-4.684 3.019,0 0,0" /></g><g
           transform="translate(374.1164,221.6411)"
           id="g168"><path
             id="path170"
             style="fill:#ffffff;fill-opacity:1;fill-rule:nonzero;stroke:none"
             d="M 0,0 C -3.014,0 -3.019,-4.684 0,-4.684 3.014,-4.684 3.019,0 0,0" /></g><g
           transform="translate(445.9307,225.3879)"
           id="g172"><path
             id="path174"
             style="fill:#ffffff;fill-opacity:1;fill-rule:nonzero;stroke:none"
             d="M 0,0 C -3.014,0 -3.019,-4.684 0,-4.684 3.014,-4.684 3.019,0 0,0" /></g><g
           transform="translate(440.9349,284.7128)"
           id="g176"><path
             id="path178"
             style="fill:#ffffff;fill-opacity:1;fill-rule:nonzero;stroke:none"
             d="M 0,0 C -3.014,0 -3.019,-4.684 0,-4.684 3.014,-4.684 3.019,0 0,0" /></g><g
           transform="translate(514.6227,166.6875)"
           id="g180"><path
             id="path182"
             style="fill:#ffffff;fill-opacity:1;fill-rule:nonzero;stroke:none"
             d="M 0,0 C -3.014,0 -3.019,-4.684 0,-4.684 3.014,-4.684 3.019,0 0,0" /></g><g
           transform="translate(562.707,191.6664)"
           id="g184"><path
             id="path186"
             style="fill:#ffffff;fill-opacity:1;fill-rule:nonzero;stroke:none"
             d="M 0,0 C -3.014,0 -3.019,-4.684 0,-4.684 3.014,-4.684 3.019,0 0,0" /></g><g
           transform="translate(573.3231,229.1347)"
           id="g188"><path
             id="path190"
             style="fill:#ffffff;fill-opacity:1;fill-rule:nonzero;stroke:none"
             d="M 0,0 C -3.014,0 -3.019,-4.684 0,-4.684 3.014,-4.684 3.019,0 0,0" /></g><g
           transform="translate(612.0403,187.2951)"
           id="g192"><path
             id="path194"
             style="fill:#ffffff;fill-opacity:1;fill-rule:nonzero;stroke:none"
             d="M 0,0 C -3.014,0 -3.019,-4.684 0,-4.684 3.014,-4.684 3.019,0 0,0" /></g><g
           transform="translate(721.9475,208.5271)"
           id="g196"><path
             id="path198"
             style="fill:#ffffff;fill-opacity:1;fill-rule:nonzero;stroke:none"
             d="M 0,0 C -3.014,0 -3.019,-4.684 0,-4.684 3.014,-4.684 3.019,0 0,0" /></g><g
           transform="translate(708.2091,264.1052)"
           id="g200"><path
             id="path202"
             style="fill:#ffffff;fill-opacity:1;fill-rule:nonzero;stroke:none"
             d="M 0,0 C -3.014,0 -3.019,-4.684 0,-4.684 3.014,-4.684 3.019,0 0,0" /></g><g
           transform="translate(763.7872,287.8351)"
           id="g204"><path
             id="path206"
             style="fill:#ffffff;fill-opacity:1;fill-rule:nonzero;stroke:none"
             d="M 0,0 C -3.014,0 -3.019,-4.684 0,-4.684 3.014,-4.684 3.019,0 0,0" /></g><g
           transform="translate(792.5129,265.9786)"
           id="g208"><path
             id="path210"
             style="fill:#ffffff;fill-opacity:1;fill-rule:nonzero;stroke:none"
             d="M 0,0 C -3.014,0 -3.019,-4.684 0,-4.684 3.014,-4.684 3.019,0 0,0" /></g><g
           transform="translate(803.7534,300.9491)"
           id="g212"><path
             id="path214"
             style="fill:#ffffff;fill-opacity:1;fill-rule:nonzero;stroke:none"
             d="M 0,0 C -3.014,0 -3.019,-4.684 0,-4.684 3.014,-4.684 3.019,0 0,0" /></g><g
           transform="translate(856.209,361.5229)"
           id="g216"><path
             id="path218"
             style="fill:#ffffff;fill-opacity:1;fill-rule:nonzero;stroke:none"
             d="M 0,0 C -3.014,0 -3.019,-4.684 0,-4.684 3.014,-4.684 3.019,0 0,0" /></g><g
           transform="translate(878.6901,410.8562)"
           id="g220"><path
             id="path222"
             style="fill:#ffffff;fill-opacity:1;fill-rule:nonzero;stroke:none"
             d="M 0,0 C -3.014,0 -3.019,-4.684 0,-4.684 3.014,-4.684 3.019,0 0,0" /></g><g
           transform="translate(311.0446,469.5566)"
           id="g224"><path
             id="path226"
             style="fill:#ffffff;fill-opacity:1;fill-rule:nonzero;stroke:none"
             d="M 0,0 C -3.014,0 -3.019,-4.684 0,-4.684 3.014,-4.684 3.019,0 0,0" /></g><g
           transform="translate(291.686,487.6663)"
           id="g228"><path
             id="path230"
             style="fill:#ffffff;fill-opacity:1;fill-rule:nonzero;stroke:none"
             d="M 0,0 C -3.014,0 -3.019,-4.684 0,-4.684 3.014,-4.684 3.019,0 0,0" /></g><g
           transform="translate(242.3527,444.5777)"
           id="g232"><path
             id="path234"
             style="fill:#ffffff;fill-opacity:1;fill-rule:nonzero;stroke:none"
             d="M 0,0 C -3.014,0 -3.019,-4.684 0,-4.684 3.014,-4.684 3.019,0 0,0" /></g><g
           transform="translate(246.0995,524.1979)"
           id="g236"><path
             id="path238"
             style="fill:#ffffff;fill-opacity:1;fill-rule:nonzero;stroke:none"
             d="M 0,0 C 3.014,0 3.019,4.684 0,4.684 -3.014,4.684 -3.019,0 0,0" /></g><g
           transform="translate(292.9349,578.527)"
           id="g240"><path
             id="path242"
             style="fill:#ffffff;fill-opacity:1;fill-rule:nonzero;stroke:none"
             d="M 0,0 C 3.014,0 3.019,4.684 0,4.684 -3.014,4.684 -3.019,0 0,0" /></g><g
           transform="translate(252.3442,617.2443)"
           id="g244"><path
             id="path246"
             style="fill:#ffffff;fill-opacity:1;fill-rule:nonzero;stroke:none"
             d="M 0,0 C 3.014,0 3.019,4.684 0,4.684 -3.014,4.684 -3.019,0 0,0" /></g><g
           transform="translate(285.4413,667.8266)"
           id="g248"><path
             id="path250"
             style="fill:#ffffff;fill-opacity:1;fill-rule:nonzero;stroke:none"
             d="M 0,0 C 3.014,0 3.019,4.684 0,4.684 -3.014,4.684 -3.019,0 0,0" /></g><g
           transform="translate(275.4497,711.2274)"
           id="g252"><path
             id="path254"
             style="fill:#ffffff;fill-opacity:1;fill-rule:nonzero;stroke:none"
             d="M 0,0 C -3.014,0 -3.019,-4.684 0,-4.684 3.014,-4.684 3.019,0 0,0" /></g><g
           transform="translate(326.6565,675.6325)"
           id="g256"><path
             id="path258"
             style="fill:#ffffff;fill-opacity:1;fill-rule:nonzero;stroke:none"
             d="M 0,0 C -3.014,0 -3.019,-4.684 0,-4.684 3.014,-4.684 3.019,0 0,0" /></g><g
           transform="translate(354.1332,703.4215)"
           id="g260"><path
             id="path262"
             style="fill:#ffffff;fill-opacity:1;fill-rule:nonzero;stroke:none"
             d="M 0,0 C 3.014,0 3.019,4.684 0,4.684 -3.014,4.684 -3.019,0 0,0" /></g><g
           transform="translate(350.3864,782.105)"
           id="g264"><path
             id="path266"
             style="fill:#ffffff;fill-opacity:1;fill-rule:nonzero;stroke:none"
             d="M 0,0 C 3.014,0 3.019,4.684 0,4.684 -3.014,4.684 -3.019,0 0,0" /></g><g
           transform="translate(409.0868,787.1008)"
           id="g268"><path
             id="path270"
             style="fill:#ffffff;fill-opacity:1;fill-rule:nonzero;stroke:none"
             d="M 0,0 C 3.014,0 3.019,4.684 0,4.684 -3.014,4.684 -3.019,0 0,0" /></g><g
           transform="translate(437.8125,836.4341)"
           id="g272"><path
             id="path274"
             style="fill:#ffffff;fill-opacity:1;fill-rule:nonzero;stroke:none"
             d="M 0,0 C 3.014,0 3.019,4.684 0,4.684 -3.014,4.684 -3.019,0 0,0" /></g><g
           transform="translate(459.0446,808.3329)"
           id="g276"><path
             id="path278"
             style="fill:#ffffff;fill-opacity:1;fill-rule:nonzero;stroke:none"
             d="M 0,0 C 3.014,0 3.019,4.684 0,4.684 -3.014,4.684 -3.019,0 0,0" /></g><g
           transform="translate(534.6058,852.046)"
           id="g280"><path
             id="path282"
             style="fill:#ffffff;fill-opacity:1;fill-rule:nonzero;stroke:none"
             d="M 0,0 C 3.014,0 3.019,4.684 0,4.684 -3.014,4.684 -3.019,0 0,0" /></g><g
           transform="translate(561.4581,845.1768)"
           id="g284"><path
             id="path286"
             style="fill:#ffffff;fill-opacity:1;fill-rule:nonzero;stroke:none"
             d="M 0,0 C 3.014,0 3.019,4.684 0,4.684 -3.014,4.684 -3.019,0 0,0" /></g><g
           transform="translate(653.2556,743.3878)"
           id="g288"><path
             id="path290"
             style="fill:#ffffff;fill-opacity:1;fill-rule:nonzero;stroke:none"
             d="M 0,0 C 3.014,0 3.019,4.684 0,4.684 -3.014,4.684 -3.019,0 0,0" /></g><g
           transform="translate(688.226,760.2485)"
           id="g292"><path
             id="path294"
             style="fill:#ffffff;fill-opacity:1;fill-rule:nonzero;stroke:none"
             d="M 0,0 C 3.014,0 3.019,4.684 0,4.684 -3.014,4.684 -3.019,0 0,0" /></g><g
           transform="translate(684.4791,790.2232)"
           id="g296"><path
             id="path298"
             style="fill:#ffffff;fill-opacity:1;fill-rule:nonzero;stroke:none"
             d="M 0,0 C 3.014,0 3.019,4.684 0,4.684 -3.014,4.684 -3.019,0 0,0" /></g><g
           transform="translate(671.9897,698.4257)"
           id="g300"><path
             id="path302"
             style="fill:#ffffff;fill-opacity:1;fill-rule:nonzero;stroke:none"
             d="M 0,0 C 3.014,0 3.019,4.684 0,4.684 -3.014,4.684 -3.019,0 0,0" /></g><g
           transform="translate(635.7703,646.5945)"
           id="g304"><path
             id="path306"
             style="fill:#ffffff;fill-opacity:1;fill-rule:nonzero;stroke:none"
             d="M 0,0 C 3.014,0 3.019,4.684 0,4.684 -3.014,4.684 -3.019,0 0,0" /></g><g
           transform="translate(603.9222,609.7507)"
           id="g308"><path
             id="path310"
             style="fill:#ffffff;fill-opacity:1;fill-rule:nonzero;stroke:none"
             d="M 0,0 C 3.014,0 3.019,4.684 0,4.684 -3.014,4.684 -3.019,0 0,0" /></g><g
           transform="translate(559.5847,619.1177)"
           id="g312"><path
             id="path314"
             style="fill:#ffffff;fill-opacity:1;fill-rule:nonzero;stroke:none"
             d="M 0,0 C 3.014,0 3.019,4.684 0,4.684 -3.014,4.684 -3.019,0 0,0" /></g><g
           transform="translate(532.7324,636.603)"
           id="g316"><path
             id="path318"
             style="fill:#ffffff;fill-opacity:1;fill-rule:nonzero;stroke:none"
             d="M 0,0 C 3.014,0 3.019,4.684 0,4.684 -3.014,4.684 -3.019,0 0,0" /></g><g
           transform="translate(491.5172,580.4005)"
           id="g320"><path
             id="path322"
             style="fill:#ffffff;fill-opacity:1;fill-rule:nonzero;stroke:none"
             d="M 0,0 C 3.014,0 3.019,4.684 0,4.684 -3.014,4.684 -3.019,0 0,0" /></g><g
           transform="translate(441.5594,593.8266)"
           id="g324"><path
             id="path326"
             style="fill:#ffffff;fill-opacity:1;fill-rule:nonzero;stroke:none"
             d="M 0,0 C -3.014,0 -3.019,-4.684 0,-4.684 3.014,-4.684 3.019,0 0,0" /></g><g
           transform="translate(537.7281,529.8182)"
           id="g328"><path
             id="path330"
             style="fill:#ffffff;fill-opacity:1;fill-rule:nonzero;stroke:none"
             d="M 0,0 C 3.014,0 3.019,4.684 0,4.684 -3.014,4.684 -3.019,0 0,0" /></g><g
           transform="translate(484.0235,482.9828)"
           id="g332"><path
             id="path334"
             style="fill:#ffffff;fill-opacity:1;fill-rule:nonzero;stroke:none"
             d="M 0,0 C 3.014,0 3.019,4.684 0,4.684 -3.014,4.684 -3.019,0 0,0" /></g><g
           transform="translate(606.4201,525.4469)"
           id="g336"><path
             id="path338"
             style="fill:#ffffff;fill-opacity:1;fill-rule:nonzero;stroke:none"
             d="M 0,0 C 3.014,0 3.019,4.684 0,4.684 -3.014,4.684 -3.019,0 0,0" /></g><g
           transform="translate(607.0446,562.9152)"
           id="g340"><path
             id="path342"
             style="fill:#ffffff;fill-opacity:1;fill-rule:nonzero;stroke:none"
             d="M 0,0 C 3.014,0 3.019,4.684 0,4.684 -3.014,4.684 -3.019,0 0,0" /></g><g
           transform="translate(664.496,548.8646)"
           id="g344"><path
             id="path346"
             style="fill:#ffffff;fill-opacity:1;fill-rule:nonzero;stroke:none"
             d="M 0,0 C -3.014,0 -3.019,-4.684 0,-4.684 3.014,-4.684 3.019,0 0,0" /></g><g
           transform="translate(666.3694,443.641)"
           id="g348"><path
             id="path350"
             style="fill:#ffffff;fill-opacity:1;fill-rule:nonzero;stroke:none"
             d="M 0,0 C 3.014,0 3.019,4.684 0,4.684 -3.014,4.684 -3.019,0 0,0" /></g><g
           transform="translate(658.2513,424.2823)"
           id="g352"><path
             id="path354"
             style="fill:#ffffff;fill-opacity:1;fill-rule:nonzero;stroke:none"
             d="M 0,0 C 3.014,0 3.019,4.684 0,4.684 -3.014,4.684 -3.019,0 0,0" /></g><g
           transform="translate(706.3357,446.1389)"
           id="g356"><path
             id="path358"
             style="fill:#ffffff;fill-opacity:1;fill-rule:nonzero;stroke:none"
             d="M 0,0 C 3.014,0 3.019,4.684 0,4.684 -3.014,4.684 -3.019,0 0,0" /></g><g
           transform="translate(690.7239,602.257)"
           id="g360"><path
             id="path362"
             style="fill:#ffffff;fill-opacity:1;fill-rule:nonzero;stroke:none"
             d="M 0,0 C 3.014,0 3.019,4.684 0,4.684 -3.014,4.684 -3.019,0 0,0" /></g><g
           transform="translate(718.2007,643.4722)"
           id="g364"><path
             id="path366"
             style="fill:#ffffff;fill-opacity:1;fill-rule:nonzero;stroke:none"
             d="M 0,0 C 3.014,0 3.019,4.684 0,4.684 -3.014,4.684 -3.019,0 0,0" /></g><g
           transform="translate(730.0656,705.2949)"
           id="g368"><path
             id="path370"
             style="fill:#ffffff;fill-opacity:1;fill-rule:nonzero;stroke:none"
             d="M 0,0 C 3.014,0 3.019,4.684 0,4.684 -3.014,4.684 -3.019,0 0,0" /></g><g
           transform="translate(759.4158,698.1135)"
           id="g372"><path
             id="path374"
             style="fill:#ffffff;fill-opacity:1;fill-rule:nonzero;stroke:none"
             d="M 0,0 C -3.014,0 -3.019,-4.684 0,-4.684 3.014,-4.684 3.019,0 0,0" /></g><g
           transform="translate(758.7914,743.3878)"
           id="g376"><path
             id="path378"
             style="fill:#ffffff;fill-opacity:1;fill-rule:nonzero;stroke:none"
             d="M 0,0 C 3.014,0 3.019,4.684 0,4.684 -3.014,4.684 -3.019,0 0,0" /></g><g
           transform="translate(575.8209,680.316)"
           id="g380"><path
             id="path382"
             style="fill:#ffffff;fill-opacity:1;fill-rule:nonzero;stroke:none"
             d="M 0,0 C 3.014,0 3.019,4.684 0,4.684 -3.014,4.684 -3.019,0 0,0" /></g></g></g></g></svg>